G04 #@! TF.GenerationSoftware,KiCad,Pcbnew,5.1.5+dfsg1-2build2*
G04 #@! TF.CreationDate,2025-03-25T17:45:28-05:00*
G04 #@! TF.ProjectId,ConnectBoard,436f6e6e-6563-4744-926f-6172642e6b69,Rev0*
G04 #@! TF.SameCoordinates,Original*
G04 #@! TF.FileFunction,Legend,Top*
G04 #@! TF.FilePolarity,Positive*
%FSLAX46Y46*%
G04 Gerber Fmt 4.6, Leading zero omitted, Abs format (unit mm)*
G04 Created by KiCad (PCBNEW 5.1.5+dfsg1-2build2) date 2025-03-25 17:45:28*
%MOMM*%
%LPD*%
G04 APERTURE LIST*
%ADD10C,0.100000*%
%ADD11C,0.150000*%
%ADD12C,0.300000*%
%ADD13C,0.400000*%
%ADD14C,0.120000*%
G04 APERTURE END LIST*
D10*
D11*
X177002200Y-166007200D02*
X177002200Y-198007200D01*
X285002200Y-198007200D01*
X285002200Y-166007200D01*
X177002200Y-166007200D01*
D10*
D11*
X10000000Y-10000000D02*
X10000000Y-200007200D01*
X287002200Y-200007200D01*
X287002200Y-10000000D01*
X10000000Y-10000000D01*
D10*
D11*
X12000000Y-12000000D02*
X12000000Y-198007200D01*
X285002200Y-198007200D01*
X285002200Y-12000000D01*
X12000000Y-12000000D01*
D10*
D11*
X60000000Y-12000000D02*
X60000000Y-10000000D01*
D10*
D11*
X110000000Y-12000000D02*
X110000000Y-10000000D01*
D10*
D11*
X160000000Y-12000000D02*
X160000000Y-10000000D01*
D10*
D11*
X210000000Y-12000000D02*
X210000000Y-10000000D01*
D10*
D11*
X260000000Y-12000000D02*
X260000000Y-10000000D01*
D10*
D11*
X36065476Y-11588095D02*
X35322619Y-11588095D01*
X35694047Y-11588095D02*
X35694047Y-10288095D01*
X35570238Y-10473809D01*
X35446428Y-10597619D01*
X35322619Y-10659523D01*
D10*
D11*
X85322619Y-10411904D02*
X85384523Y-10350000D01*
X85508333Y-10288095D01*
X85817857Y-10288095D01*
X85941666Y-10350000D01*
X86003571Y-10411904D01*
X86065476Y-10535714D01*
X86065476Y-10659523D01*
X86003571Y-10845238D01*
X85260714Y-11588095D01*
X86065476Y-11588095D01*
D10*
D11*
X135260714Y-10288095D02*
X136065476Y-10288095D01*
X135632142Y-10783333D01*
X135817857Y-10783333D01*
X135941666Y-10845238D01*
X136003571Y-10907142D01*
X136065476Y-11030952D01*
X136065476Y-11340476D01*
X136003571Y-11464285D01*
X135941666Y-11526190D01*
X135817857Y-11588095D01*
X135446428Y-11588095D01*
X135322619Y-11526190D01*
X135260714Y-11464285D01*
D10*
D11*
X185941666Y-10721428D02*
X185941666Y-11588095D01*
X185632142Y-10226190D02*
X185322619Y-11154761D01*
X186127380Y-11154761D01*
D10*
D11*
X236003571Y-10288095D02*
X235384523Y-10288095D01*
X235322619Y-10907142D01*
X235384523Y-10845238D01*
X235508333Y-10783333D01*
X235817857Y-10783333D01*
X235941666Y-10845238D01*
X236003571Y-10907142D01*
X236065476Y-11030952D01*
X236065476Y-11340476D01*
X236003571Y-11464285D01*
X235941666Y-11526190D01*
X235817857Y-11588095D01*
X235508333Y-11588095D01*
X235384523Y-11526190D01*
X235322619Y-11464285D01*
D10*
D11*
X285941666Y-10288095D02*
X285694047Y-10288095D01*
X285570238Y-10350000D01*
X285508333Y-10411904D01*
X285384523Y-10597619D01*
X285322619Y-10845238D01*
X285322619Y-11340476D01*
X285384523Y-11464285D01*
X285446428Y-11526190D01*
X285570238Y-11588095D01*
X285817857Y-11588095D01*
X285941666Y-11526190D01*
X286003571Y-11464285D01*
X286065476Y-11340476D01*
X286065476Y-11030952D01*
X286003571Y-10907142D01*
X285941666Y-10845238D01*
X285817857Y-10783333D01*
X285570238Y-10783333D01*
X285446428Y-10845238D01*
X285384523Y-10907142D01*
X285322619Y-11030952D01*
D10*
D11*
X60000000Y-198007200D02*
X60000000Y-200007200D01*
D10*
D11*
X110000000Y-198007200D02*
X110000000Y-200007200D01*
D10*
D11*
X160000000Y-198007200D02*
X160000000Y-200007200D01*
D10*
D11*
X210000000Y-198007200D02*
X210000000Y-200007200D01*
D10*
D11*
X260000000Y-198007200D02*
X260000000Y-200007200D01*
D10*
D11*
X36065476Y-199595295D02*
X35322619Y-199595295D01*
X35694047Y-199595295D02*
X35694047Y-198295295D01*
X35570238Y-198481009D01*
X35446428Y-198604819D01*
X35322619Y-198666723D01*
D10*
D11*
X85322619Y-198419104D02*
X85384523Y-198357200D01*
X85508333Y-198295295D01*
X85817857Y-198295295D01*
X85941666Y-198357200D01*
X86003571Y-198419104D01*
X86065476Y-198542914D01*
X86065476Y-198666723D01*
X86003571Y-198852438D01*
X85260714Y-199595295D01*
X86065476Y-199595295D01*
D10*
D11*
X135260714Y-198295295D02*
X136065476Y-198295295D01*
X135632142Y-198790533D01*
X135817857Y-198790533D01*
X135941666Y-198852438D01*
X136003571Y-198914342D01*
X136065476Y-199038152D01*
X136065476Y-199347676D01*
X136003571Y-199471485D01*
X135941666Y-199533390D01*
X135817857Y-199595295D01*
X135446428Y-199595295D01*
X135322619Y-199533390D01*
X135260714Y-199471485D01*
D10*
D11*
X185941666Y-198728628D02*
X185941666Y-199595295D01*
X185632142Y-198233390D02*
X185322619Y-199161961D01*
X186127380Y-199161961D01*
D10*
D11*
X236003571Y-198295295D02*
X235384523Y-198295295D01*
X235322619Y-198914342D01*
X235384523Y-198852438D01*
X235508333Y-198790533D01*
X235817857Y-198790533D01*
X235941666Y-198852438D01*
X236003571Y-198914342D01*
X236065476Y-199038152D01*
X236065476Y-199347676D01*
X236003571Y-199471485D01*
X235941666Y-199533390D01*
X235817857Y-199595295D01*
X235508333Y-199595295D01*
X235384523Y-199533390D01*
X235322619Y-199471485D01*
D10*
D11*
X285941666Y-198295295D02*
X285694047Y-198295295D01*
X285570238Y-198357200D01*
X285508333Y-198419104D01*
X285384523Y-198604819D01*
X285322619Y-198852438D01*
X285322619Y-199347676D01*
X285384523Y-199471485D01*
X285446428Y-199533390D01*
X285570238Y-199595295D01*
X285817857Y-199595295D01*
X285941666Y-199533390D01*
X286003571Y-199471485D01*
X286065476Y-199347676D01*
X286065476Y-199038152D01*
X286003571Y-198914342D01*
X285941666Y-198852438D01*
X285817857Y-198790533D01*
X285570238Y-198790533D01*
X285446428Y-198852438D01*
X285384523Y-198914342D01*
X285322619Y-199038152D01*
D10*
D11*
X10000000Y-60000000D02*
X12000000Y-60000000D01*
D10*
D11*
X10000000Y-110000000D02*
X12000000Y-110000000D01*
D10*
D11*
X10000000Y-160000000D02*
X12000000Y-160000000D01*
D10*
D11*
X10690476Y-35216666D02*
X11309523Y-35216666D01*
X10566666Y-35588095D02*
X11000000Y-34288095D01*
X11433333Y-35588095D01*
D10*
D11*
X11092857Y-84907142D02*
X11278571Y-84969047D01*
X11340476Y-85030952D01*
X11402380Y-85154761D01*
X11402380Y-85340476D01*
X11340476Y-85464285D01*
X11278571Y-85526190D01*
X11154761Y-85588095D01*
X10659523Y-85588095D01*
X10659523Y-84288095D01*
X11092857Y-84288095D01*
X11216666Y-84350000D01*
X11278571Y-84411904D01*
X11340476Y-84535714D01*
X11340476Y-84659523D01*
X11278571Y-84783333D01*
X11216666Y-84845238D01*
X11092857Y-84907142D01*
X10659523Y-84907142D01*
D10*
D11*
X11402380Y-135464285D02*
X11340476Y-135526190D01*
X11154761Y-135588095D01*
X11030952Y-135588095D01*
X10845238Y-135526190D01*
X10721428Y-135402380D01*
X10659523Y-135278571D01*
X10597619Y-135030952D01*
X10597619Y-134845238D01*
X10659523Y-134597619D01*
X10721428Y-134473809D01*
X10845238Y-134350000D01*
X11030952Y-134288095D01*
X11154761Y-134288095D01*
X11340476Y-134350000D01*
X11402380Y-134411904D01*
D10*
D11*
X10659523Y-185588095D02*
X10659523Y-184288095D01*
X10969047Y-184288095D01*
X11154761Y-184350000D01*
X11278571Y-184473809D01*
X11340476Y-184597619D01*
X11402380Y-184845238D01*
X11402380Y-185030952D01*
X11340476Y-185278571D01*
X11278571Y-185402380D01*
X11154761Y-185526190D01*
X10969047Y-185588095D01*
X10659523Y-185588095D01*
D10*
D11*
X287002200Y-60000000D02*
X285002200Y-60000000D01*
D10*
D11*
X287002200Y-110000000D02*
X285002200Y-110000000D01*
D10*
D11*
X287002200Y-160000000D02*
X285002200Y-160000000D01*
D10*
D11*
X285692676Y-35216666D02*
X286311723Y-35216666D01*
X285568866Y-35588095D02*
X286002200Y-34288095D01*
X286435533Y-35588095D01*
D10*
D11*
X286095057Y-84907142D02*
X286280771Y-84969047D01*
X286342676Y-85030952D01*
X286404580Y-85154761D01*
X286404580Y-85340476D01*
X286342676Y-85464285D01*
X286280771Y-85526190D01*
X286156961Y-85588095D01*
X285661723Y-85588095D01*
X285661723Y-84288095D01*
X286095057Y-84288095D01*
X286218866Y-84350000D01*
X286280771Y-84411904D01*
X286342676Y-84535714D01*
X286342676Y-84659523D01*
X286280771Y-84783333D01*
X286218866Y-84845238D01*
X286095057Y-84907142D01*
X285661723Y-84907142D01*
D10*
D11*
X286404580Y-135464285D02*
X286342676Y-135526190D01*
X286156961Y-135588095D01*
X286033152Y-135588095D01*
X285847438Y-135526190D01*
X285723628Y-135402380D01*
X285661723Y-135278571D01*
X285599819Y-135030952D01*
X285599819Y-134845238D01*
X285661723Y-134597619D01*
X285723628Y-134473809D01*
X285847438Y-134350000D01*
X286033152Y-134288095D01*
X286156961Y-134288095D01*
X286342676Y-134350000D01*
X286404580Y-134411904D01*
D10*
D11*
X285661723Y-185588095D02*
X285661723Y-184288095D01*
X285971247Y-184288095D01*
X286156961Y-184350000D01*
X286280771Y-184473809D01*
X286342676Y-184597619D01*
X286404580Y-184845238D01*
X286404580Y-185030952D01*
X286342676Y-185278571D01*
X286280771Y-185402380D01*
X286156961Y-185526190D01*
X285971247Y-185588095D01*
X285661723Y-185588095D01*
D10*
D11*
X200434342Y-193785771D02*
X200434342Y-192285771D01*
X200791485Y-192285771D01*
X201005771Y-192357200D01*
X201148628Y-192500057D01*
X201220057Y-192642914D01*
X201291485Y-192928628D01*
X201291485Y-193142914D01*
X201220057Y-193428628D01*
X201148628Y-193571485D01*
X201005771Y-193714342D01*
X200791485Y-193785771D01*
X200434342Y-193785771D01*
X202577200Y-193785771D02*
X202577200Y-193000057D01*
X202505771Y-192857200D01*
X202362914Y-192785771D01*
X202077200Y-192785771D01*
X201934342Y-192857200D01*
X202577200Y-193714342D02*
X202434342Y-193785771D01*
X202077200Y-193785771D01*
X201934342Y-193714342D01*
X201862914Y-193571485D01*
X201862914Y-193428628D01*
X201934342Y-193285771D01*
X202077200Y-193214342D01*
X202434342Y-193214342D01*
X202577200Y-193142914D01*
X203077200Y-192785771D02*
X203648628Y-192785771D01*
X203291485Y-192285771D02*
X203291485Y-193571485D01*
X203362914Y-193714342D01*
X203505771Y-193785771D01*
X203648628Y-193785771D01*
X204720057Y-193714342D02*
X204577200Y-193785771D01*
X204291485Y-193785771D01*
X204148628Y-193714342D01*
X204077200Y-193571485D01*
X204077200Y-193000057D01*
X204148628Y-192857200D01*
X204291485Y-192785771D01*
X204577200Y-192785771D01*
X204720057Y-192857200D01*
X204791485Y-193000057D01*
X204791485Y-193142914D01*
X204077200Y-193285771D01*
X205434342Y-193642914D02*
X205505771Y-193714342D01*
X205434342Y-193785771D01*
X205362914Y-193714342D01*
X205434342Y-193642914D01*
X205434342Y-193785771D01*
X205434342Y-192857200D02*
X205505771Y-192928628D01*
X205434342Y-193000057D01*
X205362914Y-192928628D01*
X205434342Y-192857200D01*
X205434342Y-193000057D01*
X207220057Y-192428628D02*
X207291485Y-192357200D01*
X207434342Y-192285771D01*
X207791485Y-192285771D01*
X207934342Y-192357200D01*
X208005771Y-192428628D01*
X208077200Y-192571485D01*
X208077200Y-192714342D01*
X208005771Y-192928628D01*
X207148628Y-193785771D01*
X208077200Y-193785771D01*
X209005771Y-192285771D02*
X209148628Y-192285771D01*
X209291485Y-192357200D01*
X209362914Y-192428628D01*
X209434342Y-192571485D01*
X209505771Y-192857200D01*
X209505771Y-193214342D01*
X209434342Y-193500057D01*
X209362914Y-193642914D01*
X209291485Y-193714342D01*
X209148628Y-193785771D01*
X209005771Y-193785771D01*
X208862914Y-193714342D01*
X208791485Y-193642914D01*
X208720057Y-193500057D01*
X208648628Y-193214342D01*
X208648628Y-192857200D01*
X208720057Y-192571485D01*
X208791485Y-192428628D01*
X208862914Y-192357200D01*
X209005771Y-192285771D01*
X210077200Y-192428628D02*
X210148628Y-192357200D01*
X210291485Y-192285771D01*
X210648628Y-192285771D01*
X210791485Y-192357200D01*
X210862914Y-192428628D01*
X210934342Y-192571485D01*
X210934342Y-192714342D01*
X210862914Y-192928628D01*
X210005771Y-193785771D01*
X210934342Y-193785771D01*
X212291485Y-192285771D02*
X211577200Y-192285771D01*
X211505771Y-193000057D01*
X211577200Y-192928628D01*
X211720057Y-192857200D01*
X212077200Y-192857200D01*
X212220057Y-192928628D01*
X212291485Y-193000057D01*
X212362914Y-193142914D01*
X212362914Y-193500057D01*
X212291485Y-193642914D01*
X212220057Y-193714342D01*
X212077200Y-193785771D01*
X211720057Y-193785771D01*
X211577200Y-193714342D01*
X211505771Y-193642914D01*
X213005771Y-193214342D02*
X214148628Y-193214342D01*
X215148628Y-192285771D02*
X215291485Y-192285771D01*
X215434342Y-192357200D01*
X215505771Y-192428628D01*
X215577200Y-192571485D01*
X215648628Y-192857200D01*
X215648628Y-193214342D01*
X215577200Y-193500057D01*
X215505771Y-193642914D01*
X215434342Y-193714342D01*
X215291485Y-193785771D01*
X215148628Y-193785771D01*
X215005771Y-193714342D01*
X214934342Y-193642914D01*
X214862914Y-193500057D01*
X214791485Y-193214342D01*
X214791485Y-192857200D01*
X214862914Y-192571485D01*
X214934342Y-192428628D01*
X215005771Y-192357200D01*
X215148628Y-192285771D01*
X216148628Y-192285771D02*
X217077200Y-192285771D01*
X216577200Y-192857200D01*
X216791485Y-192857200D01*
X216934342Y-192928628D01*
X217005771Y-193000057D01*
X217077200Y-193142914D01*
X217077200Y-193500057D01*
X217005771Y-193642914D01*
X216934342Y-193714342D01*
X216791485Y-193785771D01*
X216362914Y-193785771D01*
X216220057Y-193714342D01*
X216148628Y-193642914D01*
X217720057Y-193214342D02*
X218862914Y-193214342D01*
X219505771Y-192428628D02*
X219577200Y-192357200D01*
X219720057Y-192285771D01*
X220077200Y-192285771D01*
X220220057Y-192357200D01*
X220291485Y-192428628D01*
X220362914Y-192571485D01*
X220362914Y-192714342D01*
X220291485Y-192928628D01*
X219434342Y-193785771D01*
X220362914Y-193785771D01*
X221720057Y-192285771D02*
X221005771Y-192285771D01*
X220934342Y-193000057D01*
X221005771Y-192928628D01*
X221148628Y-192857200D01*
X221505771Y-192857200D01*
X221648628Y-192928628D01*
X221720057Y-193000057D01*
X221791485Y-193142914D01*
X221791485Y-193500057D01*
X221720057Y-193642914D01*
X221648628Y-193714342D01*
X221505771Y-193785771D01*
X221148628Y-193785771D01*
X221005771Y-193714342D01*
X220934342Y-193642914D01*
D10*
D11*
X177002200Y-194507200D02*
X285002200Y-194507200D01*
D10*
D11*
X178434342Y-196585771D02*
X178434342Y-195085771D01*
X179291485Y-196585771D02*
X178648628Y-195728628D01*
X179291485Y-195085771D02*
X178434342Y-195942914D01*
X179934342Y-196585771D02*
X179934342Y-195585771D01*
X179934342Y-195085771D02*
X179862914Y-195157200D01*
X179934342Y-195228628D01*
X180005771Y-195157200D01*
X179934342Y-195085771D01*
X179934342Y-195228628D01*
X181505771Y-196442914D02*
X181434342Y-196514342D01*
X181220057Y-196585771D01*
X181077200Y-196585771D01*
X180862914Y-196514342D01*
X180720057Y-196371485D01*
X180648628Y-196228628D01*
X180577200Y-195942914D01*
X180577200Y-195728628D01*
X180648628Y-195442914D01*
X180720057Y-195300057D01*
X180862914Y-195157200D01*
X181077200Y-195085771D01*
X181220057Y-195085771D01*
X181434342Y-195157200D01*
X181505771Y-195228628D01*
X182791485Y-196585771D02*
X182791485Y-195800057D01*
X182720057Y-195657200D01*
X182577200Y-195585771D01*
X182291485Y-195585771D01*
X182148628Y-195657200D01*
X182791485Y-196514342D02*
X182648628Y-196585771D01*
X182291485Y-196585771D01*
X182148628Y-196514342D01*
X182077200Y-196371485D01*
X182077200Y-196228628D01*
X182148628Y-196085771D01*
X182291485Y-196014342D01*
X182648628Y-196014342D01*
X182791485Y-195942914D01*
X184148628Y-196585771D02*
X184148628Y-195085771D01*
X184148628Y-196514342D02*
X184005771Y-196585771D01*
X183720057Y-196585771D01*
X183577200Y-196514342D01*
X183505771Y-196442914D01*
X183434342Y-196300057D01*
X183434342Y-195871485D01*
X183505771Y-195728628D01*
X183577200Y-195657200D01*
X183720057Y-195585771D01*
X184005771Y-195585771D01*
X184148628Y-195657200D01*
X186005771Y-195800057D02*
X186505771Y-195800057D01*
X186720057Y-196585771D02*
X186005771Y-196585771D01*
X186005771Y-195085771D01*
X186720057Y-195085771D01*
X187362914Y-196442914D02*
X187434342Y-196514342D01*
X187362914Y-196585771D01*
X187291485Y-196514342D01*
X187362914Y-196442914D01*
X187362914Y-196585771D01*
X188077200Y-196585771D02*
X188077200Y-195085771D01*
X188434342Y-195085771D01*
X188648628Y-195157200D01*
X188791485Y-195300057D01*
X188862914Y-195442914D01*
X188934342Y-195728628D01*
X188934342Y-195942914D01*
X188862914Y-196228628D01*
X188791485Y-196371485D01*
X188648628Y-196514342D01*
X188434342Y-196585771D01*
X188077200Y-196585771D01*
X189577200Y-196442914D02*
X189648628Y-196514342D01*
X189577200Y-196585771D01*
X189505771Y-196514342D01*
X189577200Y-196442914D01*
X189577200Y-196585771D01*
X190220057Y-196157200D02*
X190934342Y-196157200D01*
X190077200Y-196585771D02*
X190577200Y-195085771D01*
X191077200Y-196585771D01*
X191577200Y-196442914D02*
X191648628Y-196514342D01*
X191577200Y-196585771D01*
X191505771Y-196514342D01*
X191577200Y-196442914D01*
X191577200Y-196585771D01*
X194577200Y-196585771D02*
X194577200Y-195085771D01*
X194720057Y-196014342D02*
X195148628Y-196585771D01*
X195148628Y-195585771D02*
X194577200Y-196157200D01*
X195791485Y-196585771D02*
X195791485Y-195585771D01*
X195791485Y-195085771D02*
X195720057Y-195157200D01*
X195791485Y-195228628D01*
X195862914Y-195157200D01*
X195791485Y-195085771D01*
X195791485Y-195228628D01*
X197148628Y-196514342D02*
X197005771Y-196585771D01*
X196720057Y-196585771D01*
X196577200Y-196514342D01*
X196505771Y-196442914D01*
X196434342Y-196300057D01*
X196434342Y-195871485D01*
X196505771Y-195728628D01*
X196577200Y-195657200D01*
X196720057Y-195585771D01*
X197005771Y-195585771D01*
X197148628Y-195657200D01*
X198434342Y-196585771D02*
X198434342Y-195800057D01*
X198362914Y-195657200D01*
X198220057Y-195585771D01*
X197934342Y-195585771D01*
X197791485Y-195657200D01*
X198434342Y-196514342D02*
X198291485Y-196585771D01*
X197934342Y-196585771D01*
X197791485Y-196514342D01*
X197720057Y-196371485D01*
X197720057Y-196228628D01*
X197791485Y-196085771D01*
X197934342Y-196014342D01*
X198291485Y-196014342D01*
X198434342Y-195942914D01*
X199791485Y-196585771D02*
X199791485Y-195085771D01*
X199791485Y-196514342D02*
X199648628Y-196585771D01*
X199362914Y-196585771D01*
X199220057Y-196514342D01*
X199148628Y-196442914D01*
X199077200Y-196300057D01*
X199077200Y-195871485D01*
X199148628Y-195728628D01*
X199220057Y-195657200D01*
X199362914Y-195585771D01*
X199648628Y-195585771D01*
X199791485Y-195657200D01*
X202362914Y-195085771D02*
X201648628Y-195085771D01*
X201577200Y-195800057D01*
X201648628Y-195728628D01*
X201791485Y-195657200D01*
X202148628Y-195657200D01*
X202291485Y-195728628D01*
X202362914Y-195800057D01*
X202434342Y-195942914D01*
X202434342Y-196300057D01*
X202362914Y-196442914D01*
X202291485Y-196514342D01*
X202148628Y-196585771D01*
X201791485Y-196585771D01*
X201648628Y-196514342D01*
X201577200Y-196442914D01*
X203077200Y-196442914D02*
X203148628Y-196514342D01*
X203077200Y-196585771D01*
X203005771Y-196514342D01*
X203077200Y-196442914D01*
X203077200Y-196585771D01*
X204577200Y-196585771D02*
X203720057Y-196585771D01*
X204148628Y-196585771D02*
X204148628Y-195085771D01*
X204005771Y-195300057D01*
X203862914Y-195442914D01*
X203720057Y-195514342D01*
X205220057Y-196442914D02*
X205291485Y-196514342D01*
X205220057Y-196585771D01*
X205148628Y-196514342D01*
X205220057Y-196442914D01*
X205220057Y-196585771D01*
X206648628Y-195085771D02*
X205934342Y-195085771D01*
X205862914Y-195800057D01*
X205934342Y-195728628D01*
X206077200Y-195657200D01*
X206434342Y-195657200D01*
X206577200Y-195728628D01*
X206648628Y-195800057D01*
X206720057Y-195942914D01*
X206720057Y-196300057D01*
X206648628Y-196442914D01*
X206577200Y-196514342D01*
X206434342Y-196585771D01*
X206077200Y-196585771D01*
X205934342Y-196514342D01*
X205862914Y-196442914D01*
X207362914Y-196014342D02*
X208505771Y-196014342D01*
X207934342Y-196585771D02*
X207934342Y-195442914D01*
X209862914Y-196585771D02*
X209862914Y-195085771D01*
X209862914Y-196514342D02*
X209720057Y-196585771D01*
X209434342Y-196585771D01*
X209291485Y-196514342D01*
X209220057Y-196442914D01*
X209148628Y-196300057D01*
X209148628Y-195871485D01*
X209220057Y-195728628D01*
X209291485Y-195657200D01*
X209434342Y-195585771D01*
X209720057Y-195585771D01*
X209862914Y-195657200D01*
X210362914Y-195585771D02*
X210934342Y-195585771D01*
X210577200Y-196585771D02*
X210577200Y-195300057D01*
X210648628Y-195157200D01*
X210791485Y-195085771D01*
X210934342Y-195085771D01*
X211362914Y-196514342D02*
X211505771Y-196585771D01*
X211791485Y-196585771D01*
X211934342Y-196514342D01*
X212005771Y-196371485D01*
X212005771Y-196300057D01*
X211934342Y-196157200D01*
X211791485Y-196085771D01*
X211577200Y-196085771D01*
X211434342Y-196014342D01*
X211362914Y-195871485D01*
X211362914Y-195800057D01*
X211434342Y-195657200D01*
X211577200Y-195585771D01*
X211791485Y-195585771D01*
X211934342Y-195657200D01*
X213291485Y-195585771D02*
X213291485Y-196800057D01*
X213220057Y-196942914D01*
X213148628Y-197014342D01*
X213005771Y-197085771D01*
X212791485Y-197085771D01*
X212648628Y-197014342D01*
X213291485Y-196514342D02*
X213148628Y-196585771D01*
X212862914Y-196585771D01*
X212720057Y-196514342D01*
X212648628Y-196442914D01*
X212577200Y-196300057D01*
X212577200Y-195871485D01*
X212648628Y-195728628D01*
X212720057Y-195657200D01*
X212862914Y-195585771D01*
X213148628Y-195585771D01*
X213291485Y-195657200D01*
X214791485Y-196585771D02*
X213934342Y-196585771D01*
X214362914Y-196585771D02*
X214362914Y-195085771D01*
X214220057Y-195300057D01*
X214077200Y-195442914D01*
X213934342Y-195514342D01*
X215434342Y-196014342D02*
X216577200Y-196014342D01*
X217220057Y-195228628D02*
X217291485Y-195157200D01*
X217434342Y-195085771D01*
X217791485Y-195085771D01*
X217934342Y-195157200D01*
X218005771Y-195228628D01*
X218077200Y-195371485D01*
X218077200Y-195514342D01*
X218005771Y-195728628D01*
X217148628Y-196585771D01*
X218077200Y-196585771D01*
X218720057Y-196585771D02*
X218720057Y-195085771D01*
X218720057Y-195657200D02*
X218862914Y-195585771D01*
X219148628Y-195585771D01*
X219291485Y-195657200D01*
X219362914Y-195728628D01*
X219434342Y-195871485D01*
X219434342Y-196300057D01*
X219362914Y-196442914D01*
X219291485Y-196514342D01*
X219148628Y-196585771D01*
X218862914Y-196585771D01*
X218720057Y-196514342D01*
X220720057Y-195585771D02*
X220720057Y-196585771D01*
X220077200Y-195585771D02*
X220077200Y-196371485D01*
X220148628Y-196514342D01*
X220291485Y-196585771D01*
X220505771Y-196585771D01*
X220648628Y-196514342D01*
X220720057Y-196442914D01*
X221434342Y-196585771D02*
X221434342Y-195585771D01*
X221434342Y-195085771D02*
X221362914Y-195157200D01*
X221434342Y-195228628D01*
X221505771Y-195157200D01*
X221434342Y-195085771D01*
X221434342Y-195228628D01*
X222362914Y-196585771D02*
X222220057Y-196514342D01*
X222148628Y-196371485D01*
X222148628Y-195085771D01*
X223577200Y-196585771D02*
X223577200Y-195085771D01*
X223577200Y-196514342D02*
X223434342Y-196585771D01*
X223148628Y-196585771D01*
X223005771Y-196514342D01*
X222934342Y-196442914D01*
X222862914Y-196300057D01*
X222862914Y-195871485D01*
X222934342Y-195728628D01*
X223005771Y-195657200D01*
X223148628Y-195585771D01*
X223434342Y-195585771D01*
X223577200Y-195657200D01*
X224220057Y-195228628D02*
X224291485Y-195157200D01*
X224434342Y-195085771D01*
X224791485Y-195085771D01*
X224934342Y-195157200D01*
X225005771Y-195228628D01*
X225077200Y-195371485D01*
X225077200Y-195514342D01*
X225005771Y-195728628D01*
X224148628Y-196585771D01*
X225077200Y-196585771D01*
D10*
D11*
X177002200Y-191507200D02*
X285002200Y-191507200D01*
D10*
D12*
X264411485Y-193785771D02*
X263911485Y-193071485D01*
X263554342Y-193785771D02*
X263554342Y-192285771D01*
X264125771Y-192285771D01*
X264268628Y-192357200D01*
X264340057Y-192428628D01*
X264411485Y-192571485D01*
X264411485Y-192785771D01*
X264340057Y-192928628D01*
X264268628Y-193000057D01*
X264125771Y-193071485D01*
X263554342Y-193071485D01*
X265625771Y-193714342D02*
X265482914Y-193785771D01*
X265197200Y-193785771D01*
X265054342Y-193714342D01*
X264982914Y-193571485D01*
X264982914Y-193000057D01*
X265054342Y-192857200D01*
X265197200Y-192785771D01*
X265482914Y-192785771D01*
X265625771Y-192857200D01*
X265697200Y-193000057D01*
X265697200Y-193142914D01*
X264982914Y-193285771D01*
X266197200Y-192785771D02*
X266554342Y-193785771D01*
X266911485Y-192785771D01*
X267482914Y-193642914D02*
X267554342Y-193714342D01*
X267482914Y-193785771D01*
X267411485Y-193714342D01*
X267482914Y-193642914D01*
X267482914Y-193785771D01*
X267482914Y-192857200D02*
X267554342Y-192928628D01*
X267482914Y-193000057D01*
X267411485Y-192928628D01*
X267482914Y-192857200D01*
X267482914Y-193000057D01*
X270197200Y-193785771D02*
X269697200Y-193071485D01*
X269340057Y-193785771D02*
X269340057Y-192285771D01*
X269911485Y-192285771D01*
X270054342Y-192357200D01*
X270125771Y-192428628D01*
X270197200Y-192571485D01*
X270197200Y-192785771D01*
X270125771Y-192928628D01*
X270054342Y-193000057D01*
X269911485Y-193071485D01*
X269340057Y-193071485D01*
X271411485Y-193714342D02*
X271268628Y-193785771D01*
X270982914Y-193785771D01*
X270840057Y-193714342D01*
X270768628Y-193571485D01*
X270768628Y-193000057D01*
X270840057Y-192857200D01*
X270982914Y-192785771D01*
X271268628Y-192785771D01*
X271411485Y-192857200D01*
X271482914Y-193000057D01*
X271482914Y-193142914D01*
X270768628Y-193285771D01*
X271982914Y-192785771D02*
X272340057Y-193785771D01*
X272697200Y-192785771D01*
X273554342Y-192285771D02*
X273697200Y-192285771D01*
X273840057Y-192357200D01*
X273911485Y-192428628D01*
X273982914Y-192571485D01*
X274054342Y-192857200D01*
X274054342Y-193214342D01*
X273982914Y-193500057D01*
X273911485Y-193642914D01*
X273840057Y-193714342D01*
X273697200Y-193785771D01*
X273554342Y-193785771D01*
X273411485Y-193714342D01*
X273340057Y-193642914D01*
X273268628Y-193500057D01*
X273197200Y-193214342D01*
X273197200Y-192857200D01*
X273268628Y-192571485D01*
X273340057Y-192428628D01*
X273411485Y-192357200D01*
X273554342Y-192285771D01*
D10*
D11*
X178362914Y-193714342D02*
X178577200Y-193785771D01*
X178934342Y-193785771D01*
X179077200Y-193714342D01*
X179148628Y-193642914D01*
X179220057Y-193500057D01*
X179220057Y-193357200D01*
X179148628Y-193214342D01*
X179077200Y-193142914D01*
X178934342Y-193071485D01*
X178648628Y-193000057D01*
X178505771Y-192928628D01*
X178434342Y-192857200D01*
X178362914Y-192714342D01*
X178362914Y-192571485D01*
X178434342Y-192428628D01*
X178505771Y-192357200D01*
X178648628Y-192285771D01*
X179005771Y-192285771D01*
X179220057Y-192357200D01*
X179862914Y-193785771D02*
X179862914Y-192785771D01*
X179862914Y-192285771D02*
X179791485Y-192357200D01*
X179862914Y-192428628D01*
X179934342Y-192357200D01*
X179862914Y-192285771D01*
X179862914Y-192428628D01*
X180434342Y-192785771D02*
X181220057Y-192785771D01*
X180434342Y-193785771D01*
X181220057Y-193785771D01*
X182362914Y-193714342D02*
X182220057Y-193785771D01*
X181934342Y-193785771D01*
X181791485Y-193714342D01*
X181720057Y-193571485D01*
X181720057Y-193000057D01*
X181791485Y-192857200D01*
X181934342Y-192785771D01*
X182220057Y-192785771D01*
X182362914Y-192857200D01*
X182434342Y-193000057D01*
X182434342Y-193142914D01*
X181720057Y-193285771D01*
X183077200Y-193642914D02*
X183148628Y-193714342D01*
X183077200Y-193785771D01*
X183005771Y-193714342D01*
X183077200Y-193642914D01*
X183077200Y-193785771D01*
X183077200Y-192857200D02*
X183148628Y-192928628D01*
X183077200Y-193000057D01*
X183005771Y-192928628D01*
X183077200Y-192857200D01*
X183077200Y-193000057D01*
X184862914Y-193357200D02*
X185577200Y-193357200D01*
X184720057Y-193785771D02*
X185220057Y-192285771D01*
X185720057Y-193785771D01*
X186862914Y-192785771D02*
X186862914Y-193785771D01*
X186505771Y-192214342D02*
X186148628Y-193285771D01*
X187077200Y-193285771D01*
D10*
D11*
X263434342Y-196585771D02*
X263434342Y-195085771D01*
X264791485Y-196585771D02*
X264791485Y-195085771D01*
X264791485Y-196514342D02*
X264648628Y-196585771D01*
X264362914Y-196585771D01*
X264220057Y-196514342D01*
X264148628Y-196442914D01*
X264077200Y-196300057D01*
X264077200Y-195871485D01*
X264148628Y-195728628D01*
X264220057Y-195657200D01*
X264362914Y-195585771D01*
X264648628Y-195585771D01*
X264791485Y-195657200D01*
X265505771Y-196442914D02*
X265577200Y-196514342D01*
X265505771Y-196585771D01*
X265434342Y-196514342D01*
X265505771Y-196442914D01*
X265505771Y-196585771D01*
X265505771Y-195657200D02*
X265577200Y-195728628D01*
X265505771Y-195800057D01*
X265434342Y-195728628D01*
X265505771Y-195657200D01*
X265505771Y-195800057D01*
X268148628Y-196585771D02*
X267291485Y-196585771D01*
X267720057Y-196585771D02*
X267720057Y-195085771D01*
X267577200Y-195300057D01*
X267434342Y-195442914D01*
X267291485Y-195514342D01*
X269862914Y-195014342D02*
X268577200Y-196942914D01*
X271148628Y-196585771D02*
X270291485Y-196585771D01*
X270720057Y-196585771D02*
X270720057Y-195085771D01*
X270577200Y-195300057D01*
X270434342Y-195442914D01*
X270291485Y-195514342D01*
D10*
D11*
X177002200Y-187507200D02*
X285002200Y-187507200D01*
D10*
D13*
X178714580Y-188211961D02*
X179857438Y-188211961D01*
X179036009Y-190211961D02*
X179286009Y-188211961D01*
X180274104Y-190211961D02*
X180440771Y-188878628D01*
X180524104Y-188211961D02*
X180416961Y-188307200D01*
X180500295Y-188402438D01*
X180607438Y-188307200D01*
X180524104Y-188211961D01*
X180500295Y-188402438D01*
X181107438Y-188878628D02*
X181869342Y-188878628D01*
X181476485Y-188211961D02*
X181262200Y-189926247D01*
X181333628Y-190116723D01*
X181512200Y-190211961D01*
X181702676Y-190211961D01*
X182655057Y-190211961D02*
X182476485Y-190116723D01*
X182405057Y-189926247D01*
X182619342Y-188211961D01*
X184190771Y-190116723D02*
X183988390Y-190211961D01*
X183607438Y-190211961D01*
X183428866Y-190116723D01*
X183357438Y-189926247D01*
X183452676Y-189164342D01*
X183571723Y-188973866D01*
X183774104Y-188878628D01*
X184155057Y-188878628D01*
X184333628Y-188973866D01*
X184405057Y-189164342D01*
X184381247Y-189354819D01*
X183405057Y-189545295D01*
X185155057Y-190021485D02*
X185238390Y-190116723D01*
X185131247Y-190211961D01*
X185047914Y-190116723D01*
X185155057Y-190021485D01*
X185131247Y-190211961D01*
X185286009Y-188973866D02*
X185369342Y-189069104D01*
X185262200Y-189164342D01*
X185178866Y-189069104D01*
X185286009Y-188973866D01*
X185262200Y-189164342D01*
X187607438Y-190211961D02*
X187857438Y-188211961D01*
X188619342Y-188211961D01*
X188797914Y-188307200D01*
X188881247Y-188402438D01*
X188952676Y-188592914D01*
X188916961Y-188878628D01*
X188797914Y-189069104D01*
X188690771Y-189164342D01*
X188488390Y-189259580D01*
X187726485Y-189259580D01*
X189607438Y-190211961D02*
X189774104Y-188878628D01*
X189726485Y-189259580D02*
X189845533Y-189069104D01*
X189952676Y-188973866D01*
X190155057Y-188878628D01*
X190345533Y-188878628D01*
X191131247Y-190211961D02*
X190952676Y-190116723D01*
X190869342Y-190021485D01*
X190797914Y-189831009D01*
X190869342Y-189259580D01*
X190988390Y-189069104D01*
X191095533Y-188973866D01*
X191297914Y-188878628D01*
X191583628Y-188878628D01*
X191762200Y-188973866D01*
X191845533Y-189069104D01*
X191916961Y-189259580D01*
X191845533Y-189831009D01*
X191726485Y-190021485D01*
X191619342Y-190116723D01*
X191416961Y-190211961D01*
X191131247Y-190211961D01*
X192821723Y-188878628D02*
X192571723Y-190878628D01*
X192809819Y-188973866D02*
X193012200Y-188878628D01*
X193393152Y-188878628D01*
X193571723Y-188973866D01*
X193655057Y-189069104D01*
X193726485Y-189259580D01*
X193655057Y-189831009D01*
X193536009Y-190021485D01*
X193428866Y-190116723D01*
X193226485Y-190211961D01*
X192845533Y-190211961D01*
X192666961Y-190116723D01*
X196119342Y-188402438D02*
X196226485Y-188307200D01*
X196428866Y-188211961D01*
X196905057Y-188211961D01*
X197083628Y-188307200D01*
X197166961Y-188402438D01*
X197238390Y-188592914D01*
X197214580Y-188783390D01*
X197083628Y-189069104D01*
X195797914Y-190211961D01*
X197036009Y-190211961D01*
X199333628Y-190116723D02*
X199607438Y-190211961D01*
X200083628Y-190211961D01*
X200286009Y-190116723D01*
X200393152Y-190021485D01*
X200512200Y-189831009D01*
X200536009Y-189640533D01*
X200464580Y-189450057D01*
X200381247Y-189354819D01*
X200202676Y-189259580D01*
X199833628Y-189164342D01*
X199655057Y-189069104D01*
X199571723Y-188973866D01*
X199500295Y-188783390D01*
X199524104Y-188592914D01*
X199643152Y-188402438D01*
X199750295Y-188307200D01*
X199952676Y-188211961D01*
X200428866Y-188211961D01*
X200702676Y-188307200D01*
X201607438Y-190211961D02*
X201428866Y-190116723D01*
X201345533Y-190021485D01*
X201274104Y-189831009D01*
X201345533Y-189259580D01*
X201464580Y-189069104D01*
X201571723Y-188973866D01*
X201774104Y-188878628D01*
X202059819Y-188878628D01*
X202238390Y-188973866D01*
X202321723Y-189069104D01*
X202393152Y-189259580D01*
X202321723Y-189831009D01*
X202202676Y-190021485D01*
X202095533Y-190116723D01*
X201893152Y-190211961D01*
X201607438Y-190211961D01*
X203297914Y-188878628D02*
X203131247Y-190211961D01*
X203274104Y-189069104D02*
X203381247Y-188973866D01*
X203583628Y-188878628D01*
X203869342Y-188878628D01*
X204047914Y-188973866D01*
X204119342Y-189164342D01*
X203988390Y-190211961D01*
X205797914Y-190211961D02*
X205928866Y-189164342D01*
X205857438Y-188973866D01*
X205678866Y-188878628D01*
X205297914Y-188878628D01*
X205095533Y-188973866D01*
X205809819Y-190116723D02*
X205607438Y-190211961D01*
X205131247Y-190211961D01*
X204952676Y-190116723D01*
X204881247Y-189926247D01*
X204905057Y-189735771D01*
X205024104Y-189545295D01*
X205226485Y-189450057D01*
X205702676Y-189450057D01*
X205905057Y-189354819D01*
X206750295Y-190211961D02*
X206916961Y-188878628D01*
X206869342Y-189259580D02*
X206988390Y-189069104D01*
X207095533Y-188973866D01*
X207297914Y-188878628D01*
X207488390Y-188878628D01*
X210678866Y-190021485D02*
X210571723Y-190116723D01*
X210274104Y-190211961D01*
X210083628Y-190211961D01*
X209809819Y-190116723D01*
X209643152Y-189926247D01*
X209571723Y-189735771D01*
X209524104Y-189354819D01*
X209559819Y-189069104D01*
X209702676Y-188688152D01*
X209821723Y-188497676D01*
X210036009Y-188307200D01*
X210333628Y-188211961D01*
X210524104Y-188211961D01*
X210797914Y-188307200D01*
X210881247Y-188402438D01*
X211797914Y-190211961D02*
X211619342Y-190116723D01*
X211536009Y-190021485D01*
X211464580Y-189831009D01*
X211536009Y-189259580D01*
X211655057Y-189069104D01*
X211762200Y-188973866D01*
X211964580Y-188878628D01*
X212250295Y-188878628D01*
X212428866Y-188973866D01*
X212512200Y-189069104D01*
X212583628Y-189259580D01*
X212512200Y-189831009D01*
X212393152Y-190021485D01*
X212286009Y-190116723D01*
X212083628Y-190211961D01*
X211797914Y-190211961D01*
X213488390Y-188878628D02*
X213321723Y-190211961D01*
X213464580Y-189069104D02*
X213571723Y-188973866D01*
X213774104Y-188878628D01*
X214059819Y-188878628D01*
X214238390Y-188973866D01*
X214309819Y-189164342D01*
X214178866Y-190211961D01*
X215297914Y-188878628D02*
X215131247Y-190211961D01*
X215274104Y-189069104D02*
X215381247Y-188973866D01*
X215583628Y-188878628D01*
X215869342Y-188878628D01*
X216047914Y-188973866D01*
X216119342Y-189164342D01*
X215988390Y-190211961D01*
X217714580Y-190116723D02*
X217512200Y-190211961D01*
X217131247Y-190211961D01*
X216952676Y-190116723D01*
X216881247Y-189926247D01*
X216976485Y-189164342D01*
X217095533Y-188973866D01*
X217297914Y-188878628D01*
X217678866Y-188878628D01*
X217857438Y-188973866D01*
X217928866Y-189164342D01*
X217905057Y-189354819D01*
X216928866Y-189545295D01*
X219524104Y-190116723D02*
X219321723Y-190211961D01*
X218940771Y-190211961D01*
X218762200Y-190116723D01*
X218678866Y-190021485D01*
X218607438Y-189831009D01*
X218678866Y-189259580D01*
X218797914Y-189069104D01*
X218905057Y-188973866D01*
X219107438Y-188878628D01*
X219488390Y-188878628D01*
X219666961Y-188973866D01*
X220250295Y-188878628D02*
X221012200Y-188878628D01*
X220619342Y-188211961D02*
X220405057Y-189926247D01*
X220476485Y-190116723D01*
X220655057Y-190211961D01*
X220845533Y-190211961D01*
X223833628Y-189164342D02*
X224107438Y-189259580D01*
X224190771Y-189354819D01*
X224262200Y-189545295D01*
X224226485Y-189831009D01*
X224107438Y-190021485D01*
X224000295Y-190116723D01*
X223797914Y-190211961D01*
X223036009Y-190211961D01*
X223286009Y-188211961D01*
X223952676Y-188211961D01*
X224131247Y-188307200D01*
X224214580Y-188402438D01*
X224286009Y-188592914D01*
X224262200Y-188783390D01*
X224143152Y-188973866D01*
X224036009Y-189069104D01*
X223833628Y-189164342D01*
X223166961Y-189164342D01*
X225321723Y-190211961D02*
X225143152Y-190116723D01*
X225059819Y-190021485D01*
X224988390Y-189831009D01*
X225059819Y-189259580D01*
X225178866Y-189069104D01*
X225286009Y-188973866D01*
X225488390Y-188878628D01*
X225774104Y-188878628D01*
X225952676Y-188973866D01*
X226036009Y-189069104D01*
X226107438Y-189259580D01*
X226036009Y-189831009D01*
X225916961Y-190021485D01*
X225809819Y-190116723D01*
X225607438Y-190211961D01*
X225321723Y-190211961D01*
X227702676Y-190211961D02*
X227833628Y-189164342D01*
X227762200Y-188973866D01*
X227583628Y-188878628D01*
X227202676Y-188878628D01*
X227000295Y-188973866D01*
X227714580Y-190116723D02*
X227512200Y-190211961D01*
X227036009Y-190211961D01*
X226857438Y-190116723D01*
X226786009Y-189926247D01*
X226809819Y-189735771D01*
X226928866Y-189545295D01*
X227131247Y-189450057D01*
X227607438Y-189450057D01*
X227809819Y-189354819D01*
X228655057Y-190211961D02*
X228821723Y-188878628D01*
X228774104Y-189259580D02*
X228893152Y-189069104D01*
X229000295Y-188973866D01*
X229202676Y-188878628D01*
X229393152Y-188878628D01*
X230750295Y-190211961D02*
X231000295Y-188211961D01*
X230762200Y-190116723D02*
X230559819Y-190211961D01*
X230178866Y-190211961D01*
X230000295Y-190116723D01*
X229916961Y-190021485D01*
X229845533Y-189831009D01*
X229916961Y-189259580D01*
X230036009Y-189069104D01*
X230143152Y-188973866D01*
X230345533Y-188878628D01*
X230726485Y-188878628D01*
X230905057Y-188973866D01*
D10*
D11*
X178934342Y-185600057D02*
X178434342Y-185600057D01*
X178434342Y-186385771D02*
X178434342Y-184885771D01*
X179148628Y-184885771D01*
X179720057Y-186385771D02*
X179720057Y-185385771D01*
X179720057Y-184885771D02*
X179648628Y-184957200D01*
X179720057Y-185028628D01*
X179791485Y-184957200D01*
X179720057Y-184885771D01*
X179720057Y-185028628D01*
X180648628Y-186385771D02*
X180505771Y-186314342D01*
X180434342Y-186171485D01*
X180434342Y-184885771D01*
X181791485Y-186314342D02*
X181648628Y-186385771D01*
X181362914Y-186385771D01*
X181220057Y-186314342D01*
X181148628Y-186171485D01*
X181148628Y-185600057D01*
X181220057Y-185457200D01*
X181362914Y-185385771D01*
X181648628Y-185385771D01*
X181791485Y-185457200D01*
X181862914Y-185600057D01*
X181862914Y-185742914D01*
X181148628Y-185885771D01*
X182505771Y-186242914D02*
X182577200Y-186314342D01*
X182505771Y-186385771D01*
X182434342Y-186314342D01*
X182505771Y-186242914D01*
X182505771Y-186385771D01*
X182505771Y-185457200D02*
X182577200Y-185528628D01*
X182505771Y-185600057D01*
X182434342Y-185528628D01*
X182505771Y-185457200D01*
X182505771Y-185600057D01*
X185220057Y-186242914D02*
X185148628Y-186314342D01*
X184934342Y-186385771D01*
X184791485Y-186385771D01*
X184577200Y-186314342D01*
X184434342Y-186171485D01*
X184362914Y-186028628D01*
X184291485Y-185742914D01*
X184291485Y-185528628D01*
X184362914Y-185242914D01*
X184434342Y-185100057D01*
X184577200Y-184957200D01*
X184791485Y-184885771D01*
X184934342Y-184885771D01*
X185148628Y-184957200D01*
X185220057Y-185028628D01*
X186077200Y-186385771D02*
X185934342Y-186314342D01*
X185862914Y-186242914D01*
X185791485Y-186100057D01*
X185791485Y-185671485D01*
X185862914Y-185528628D01*
X185934342Y-185457200D01*
X186077200Y-185385771D01*
X186291485Y-185385771D01*
X186434342Y-185457200D01*
X186505771Y-185528628D01*
X186577200Y-185671485D01*
X186577200Y-186100057D01*
X186505771Y-186242914D01*
X186434342Y-186314342D01*
X186291485Y-186385771D01*
X186077200Y-186385771D01*
X187220057Y-185385771D02*
X187220057Y-186385771D01*
X187220057Y-185528628D02*
X187291485Y-185457200D01*
X187434342Y-185385771D01*
X187648628Y-185385771D01*
X187791485Y-185457200D01*
X187862914Y-185600057D01*
X187862914Y-186385771D01*
X188577200Y-185385771D02*
X188577200Y-186385771D01*
X188577200Y-185528628D02*
X188648628Y-185457200D01*
X188791485Y-185385771D01*
X189005771Y-185385771D01*
X189148628Y-185457200D01*
X189220057Y-185600057D01*
X189220057Y-186385771D01*
X190505771Y-186314342D02*
X190362914Y-186385771D01*
X190077200Y-186385771D01*
X189934342Y-186314342D01*
X189862914Y-186171485D01*
X189862914Y-185600057D01*
X189934342Y-185457200D01*
X190077200Y-185385771D01*
X190362914Y-185385771D01*
X190505771Y-185457200D01*
X190577200Y-185600057D01*
X190577200Y-185742914D01*
X189862914Y-185885771D01*
X191862914Y-186314342D02*
X191720057Y-186385771D01*
X191434342Y-186385771D01*
X191291485Y-186314342D01*
X191220057Y-186242914D01*
X191148628Y-186100057D01*
X191148628Y-185671485D01*
X191220057Y-185528628D01*
X191291485Y-185457200D01*
X191434342Y-185385771D01*
X191720057Y-185385771D01*
X191862914Y-185457200D01*
X192291485Y-185385771D02*
X192862914Y-185385771D01*
X192505771Y-184885771D02*
X192505771Y-186171485D01*
X192577200Y-186314342D01*
X192720057Y-186385771D01*
X192862914Y-186385771D01*
X193862914Y-185600057D02*
X194077200Y-185671485D01*
X194148628Y-185742914D01*
X194220057Y-185885771D01*
X194220057Y-186100057D01*
X194148628Y-186242914D01*
X194077200Y-186314342D01*
X193934342Y-186385771D01*
X193362914Y-186385771D01*
X193362914Y-184885771D01*
X193862914Y-184885771D01*
X194005771Y-184957200D01*
X194077200Y-185028628D01*
X194148628Y-185171485D01*
X194148628Y-185314342D01*
X194077200Y-185457200D01*
X194005771Y-185528628D01*
X193862914Y-185600057D01*
X193362914Y-185600057D01*
X195077200Y-186385771D02*
X194934342Y-186314342D01*
X194862914Y-186242914D01*
X194791485Y-186100057D01*
X194791485Y-185671485D01*
X194862914Y-185528628D01*
X194934342Y-185457200D01*
X195077200Y-185385771D01*
X195291485Y-185385771D01*
X195434342Y-185457200D01*
X195505771Y-185528628D01*
X195577200Y-185671485D01*
X195577200Y-186100057D01*
X195505771Y-186242914D01*
X195434342Y-186314342D01*
X195291485Y-186385771D01*
X195077200Y-186385771D01*
X196862914Y-186385771D02*
X196862914Y-185600057D01*
X196791485Y-185457200D01*
X196648628Y-185385771D01*
X196362914Y-185385771D01*
X196220057Y-185457200D01*
X196862914Y-186314342D02*
X196720057Y-186385771D01*
X196362914Y-186385771D01*
X196220057Y-186314342D01*
X196148628Y-186171485D01*
X196148628Y-186028628D01*
X196220057Y-185885771D01*
X196362914Y-185814342D01*
X196720057Y-185814342D01*
X196862914Y-185742914D01*
X197577200Y-186385771D02*
X197577200Y-185385771D01*
X197577200Y-185671485D02*
X197648628Y-185528628D01*
X197720057Y-185457200D01*
X197862914Y-185385771D01*
X198005771Y-185385771D01*
X199148628Y-186385771D02*
X199148628Y-184885771D01*
X199148628Y-186314342D02*
X199005771Y-186385771D01*
X198720057Y-186385771D01*
X198577200Y-186314342D01*
X198505771Y-186242914D01*
X198434342Y-186100057D01*
X198434342Y-185671485D01*
X198505771Y-185528628D01*
X198577200Y-185457200D01*
X198720057Y-185385771D01*
X199005771Y-185385771D01*
X199148628Y-185457200D01*
X199862914Y-186242914D02*
X199934342Y-186314342D01*
X199862914Y-186385771D01*
X199791485Y-186314342D01*
X199862914Y-186242914D01*
X199862914Y-186385771D01*
X200577200Y-186385771D02*
X200577200Y-184885771D01*
X200720057Y-185814342D02*
X201148628Y-186385771D01*
X201148628Y-185385771D02*
X200577200Y-185957200D01*
X201791485Y-186385771D02*
X201791485Y-185385771D01*
X201791485Y-184885771D02*
X201720057Y-184957200D01*
X201791485Y-185028628D01*
X201862914Y-184957200D01*
X201791485Y-184885771D01*
X201791485Y-185028628D01*
X203148628Y-186314342D02*
X203005771Y-186385771D01*
X202720057Y-186385771D01*
X202577200Y-186314342D01*
X202505771Y-186242914D01*
X202434342Y-186100057D01*
X202434342Y-185671485D01*
X202505771Y-185528628D01*
X202577200Y-185457200D01*
X202720057Y-185385771D01*
X203005771Y-185385771D01*
X203148628Y-185457200D01*
X204434342Y-186385771D02*
X204434342Y-185600057D01*
X204362914Y-185457200D01*
X204220057Y-185385771D01*
X203934342Y-185385771D01*
X203791485Y-185457200D01*
X204434342Y-186314342D02*
X204291485Y-186385771D01*
X203934342Y-186385771D01*
X203791485Y-186314342D01*
X203720057Y-186171485D01*
X203720057Y-186028628D01*
X203791485Y-185885771D01*
X203934342Y-185814342D01*
X204291485Y-185814342D01*
X204434342Y-185742914D01*
X205791485Y-186385771D02*
X205791485Y-184885771D01*
X205791485Y-186314342D02*
X205648628Y-186385771D01*
X205362914Y-186385771D01*
X205220057Y-186314342D01*
X205148628Y-186242914D01*
X205077200Y-186100057D01*
X205077200Y-185671485D01*
X205148628Y-185528628D01*
X205220057Y-185457200D01*
X205362914Y-185385771D01*
X205648628Y-185385771D01*
X205791485Y-185457200D01*
X206148628Y-186528628D02*
X207291485Y-186528628D01*
X207648628Y-185385771D02*
X207648628Y-186885771D01*
X207648628Y-185457200D02*
X207791485Y-185385771D01*
X208077200Y-185385771D01*
X208220057Y-185457200D01*
X208291485Y-185528628D01*
X208362914Y-185671485D01*
X208362914Y-186100057D01*
X208291485Y-186242914D01*
X208220057Y-186314342D01*
X208077200Y-186385771D01*
X207791485Y-186385771D01*
X207648628Y-186314342D01*
X209648628Y-186314342D02*
X209505771Y-186385771D01*
X209220057Y-186385771D01*
X209077200Y-186314342D01*
X209005771Y-186242914D01*
X208934342Y-186100057D01*
X208934342Y-185671485D01*
X209005771Y-185528628D01*
X209077200Y-185457200D01*
X209220057Y-185385771D01*
X209505771Y-185385771D01*
X209648628Y-185457200D01*
X210291485Y-186385771D02*
X210291485Y-184885771D01*
X210291485Y-185457200D02*
X210434342Y-185385771D01*
X210720057Y-185385771D01*
X210862914Y-185457200D01*
X210934342Y-185528628D01*
X211005771Y-185671485D01*
X211005771Y-186100057D01*
X210934342Y-186242914D01*
X210862914Y-186314342D01*
X210720057Y-186385771D01*
X210434342Y-186385771D01*
X210291485Y-186314342D01*
D10*
D11*
X177002200Y-181507200D02*
X285002200Y-181507200D01*
D10*
D11*
X178362914Y-183614342D02*
X178577200Y-183685771D01*
X178934342Y-183685771D01*
X179077200Y-183614342D01*
X179148628Y-183542914D01*
X179220057Y-183400057D01*
X179220057Y-183257200D01*
X179148628Y-183114342D01*
X179077200Y-183042914D01*
X178934342Y-182971485D01*
X178648628Y-182900057D01*
X178505771Y-182828628D01*
X178434342Y-182757200D01*
X178362914Y-182614342D01*
X178362914Y-182471485D01*
X178434342Y-182328628D01*
X178505771Y-182257200D01*
X178648628Y-182185771D01*
X179005771Y-182185771D01*
X179220057Y-182257200D01*
X179862914Y-183685771D02*
X179862914Y-182185771D01*
X180505771Y-183685771D02*
X180505771Y-182900057D01*
X180434342Y-182757200D01*
X180291485Y-182685771D01*
X180077200Y-182685771D01*
X179934342Y-182757200D01*
X179862914Y-182828628D01*
X181791485Y-183614342D02*
X181648628Y-183685771D01*
X181362914Y-183685771D01*
X181220057Y-183614342D01*
X181148628Y-183471485D01*
X181148628Y-182900057D01*
X181220057Y-182757200D01*
X181362914Y-182685771D01*
X181648628Y-182685771D01*
X181791485Y-182757200D01*
X181862914Y-182900057D01*
X181862914Y-183042914D01*
X181148628Y-183185771D01*
X183077200Y-183614342D02*
X182934342Y-183685771D01*
X182648628Y-183685771D01*
X182505771Y-183614342D01*
X182434342Y-183471485D01*
X182434342Y-182900057D01*
X182505771Y-182757200D01*
X182648628Y-182685771D01*
X182934342Y-182685771D01*
X183077200Y-182757200D01*
X183148628Y-182900057D01*
X183148628Y-183042914D01*
X182434342Y-183185771D01*
X183577200Y-182685771D02*
X184148628Y-182685771D01*
X183791485Y-182185771D02*
X183791485Y-183471485D01*
X183862914Y-183614342D01*
X184005771Y-183685771D01*
X184148628Y-183685771D01*
X184648628Y-183542914D02*
X184720057Y-183614342D01*
X184648628Y-183685771D01*
X184577200Y-183614342D01*
X184648628Y-183542914D01*
X184648628Y-183685771D01*
X184648628Y-182757200D02*
X184720057Y-182828628D01*
X184648628Y-182900057D01*
X184577200Y-182828628D01*
X184648628Y-182757200D01*
X184648628Y-182900057D01*
D10*
D12*
X179054342Y-179900057D02*
X178554342Y-179900057D01*
X178554342Y-180685771D02*
X178554342Y-179185771D01*
X179268628Y-179185771D01*
X179768628Y-180257200D02*
X180482914Y-180257200D01*
X179625771Y-180685771D02*
X180125771Y-179185771D01*
X180625771Y-180685771D01*
X181054342Y-180614342D02*
X181268628Y-180685771D01*
X181625771Y-180685771D01*
X181768628Y-180614342D01*
X181840057Y-180542914D01*
X181911485Y-180400057D01*
X181911485Y-180257200D01*
X181840057Y-180114342D01*
X181768628Y-180042914D01*
X181625771Y-179971485D01*
X181340057Y-179900057D01*
X181197200Y-179828628D01*
X181125771Y-179757200D01*
X181054342Y-179614342D01*
X181054342Y-179471485D01*
X181125771Y-179328628D01*
X181197200Y-179257200D01*
X181340057Y-179185771D01*
X181697200Y-179185771D01*
X181911485Y-179257200D01*
X182340057Y-179185771D02*
X183197200Y-179185771D01*
X182768628Y-180685771D02*
X182768628Y-179185771D01*
X185697200Y-180685771D02*
X185197200Y-179971485D01*
X184840057Y-180685771D02*
X184840057Y-179185771D01*
X185411485Y-179185771D01*
X185554342Y-179257200D01*
X185625771Y-179328628D01*
X185697200Y-179471485D01*
X185697200Y-179685771D01*
X185625771Y-179828628D01*
X185554342Y-179900057D01*
X185411485Y-179971485D01*
X184840057Y-179971485D01*
X186554342Y-180685771D02*
X186411485Y-180614342D01*
X186340057Y-180542914D01*
X186268628Y-180400057D01*
X186268628Y-179971485D01*
X186340057Y-179828628D01*
X186411485Y-179757200D01*
X186554342Y-179685771D01*
X186768628Y-179685771D01*
X186911485Y-179757200D01*
X186982914Y-179828628D01*
X187054342Y-179971485D01*
X187054342Y-180400057D01*
X186982914Y-180542914D01*
X186911485Y-180614342D01*
X186768628Y-180685771D01*
X186554342Y-180685771D01*
X187697200Y-180685771D02*
X187697200Y-179185771D01*
X187697200Y-179757200D02*
X187840057Y-179685771D01*
X188125771Y-179685771D01*
X188268628Y-179757200D01*
X188340057Y-179828628D01*
X188411485Y-179971485D01*
X188411485Y-180400057D01*
X188340057Y-180542914D01*
X188268628Y-180614342D01*
X188125771Y-180685771D01*
X187840057Y-180685771D01*
X187697200Y-180614342D01*
X189268628Y-180685771D02*
X189125771Y-180614342D01*
X189054342Y-180542914D01*
X188982914Y-180400057D01*
X188982914Y-179971485D01*
X189054342Y-179828628D01*
X189125771Y-179757200D01*
X189268628Y-179685771D01*
X189482914Y-179685771D01*
X189625771Y-179757200D01*
X189697200Y-179828628D01*
X189768628Y-179971485D01*
X189768628Y-180400057D01*
X189697200Y-180542914D01*
X189625771Y-180614342D01*
X189482914Y-180685771D01*
X189268628Y-180685771D01*
X190197200Y-179685771D02*
X190768628Y-179685771D01*
X190411485Y-179185771D02*
X190411485Y-180471485D01*
X190482914Y-180614342D01*
X190625771Y-180685771D01*
X190768628Y-180685771D01*
X191268628Y-180685771D02*
X191268628Y-179685771D01*
X191268628Y-179185771D02*
X191197200Y-179257200D01*
X191268628Y-179328628D01*
X191340057Y-179257200D01*
X191268628Y-179185771D01*
X191268628Y-179328628D01*
X192625771Y-180614342D02*
X192482914Y-180685771D01*
X192197200Y-180685771D01*
X192054342Y-180614342D01*
X191982914Y-180542914D01*
X191911485Y-180400057D01*
X191911485Y-179971485D01*
X191982914Y-179828628D01*
X192054342Y-179757200D01*
X192197200Y-179685771D01*
X192482914Y-179685771D01*
X192625771Y-179757200D01*
X193197200Y-180614342D02*
X193340057Y-180685771D01*
X193625771Y-180685771D01*
X193768628Y-180614342D01*
X193840057Y-180471485D01*
X193840057Y-180400057D01*
X193768628Y-180257200D01*
X193625771Y-180185771D01*
X193411485Y-180185771D01*
X193268628Y-180114342D01*
X193197200Y-179971485D01*
X193197200Y-179900057D01*
X193268628Y-179757200D01*
X193411485Y-179685771D01*
X193625771Y-179685771D01*
X193768628Y-179757200D01*
D10*
D11*
X197002200Y-191507200D02*
X197002200Y-194507200D01*
D10*
D11*
X261002200Y-191507200D02*
X261002200Y-198007200D01*
X127231876Y-131287780D02*
X127231876Y-130287780D01*
X127565209Y-131002066D01*
X127898542Y-130287780D01*
X127898542Y-131287780D01*
X128279495Y-130287780D02*
X128898542Y-130287780D01*
X128565209Y-130668733D01*
X128708066Y-130668733D01*
X128803304Y-130716352D01*
X128850923Y-130763971D01*
X128898542Y-130859209D01*
X128898542Y-131097304D01*
X128850923Y-131192542D01*
X128803304Y-131240161D01*
X128708066Y-131287780D01*
X128422352Y-131287780D01*
X128327114Y-131240161D01*
X128279495Y-131192542D01*
X118778780Y-57698923D02*
X117778780Y-57698923D01*
X117778780Y-57460828D01*
X117826400Y-57317971D01*
X117921638Y-57222733D01*
X118016876Y-57175114D01*
X118207352Y-57127495D01*
X118350209Y-57127495D01*
X118540685Y-57175114D01*
X118635923Y-57222733D01*
X118731161Y-57317971D01*
X118778780Y-57460828D01*
X118778780Y-57698923D01*
X118683542Y-56127495D02*
X118731161Y-56175114D01*
X118778780Y-56317971D01*
X118778780Y-56413209D01*
X118731161Y-56556066D01*
X118635923Y-56651304D01*
X118540685Y-56698923D01*
X118350209Y-56746542D01*
X118207352Y-56746542D01*
X118016876Y-56698923D01*
X117921638Y-56651304D01*
X117826400Y-56556066D01*
X117778780Y-56413209D01*
X117778780Y-56317971D01*
X117826400Y-56175114D01*
X117874019Y-56127495D01*
X117778780Y-54651304D02*
X118493066Y-54651304D01*
X118635923Y-54698923D01*
X118731161Y-54794161D01*
X118778780Y-54937019D01*
X118778780Y-55032257D01*
X118778780Y-53746542D02*
X118254971Y-53746542D01*
X118159733Y-53794161D01*
X118112114Y-53889400D01*
X118112114Y-54079876D01*
X118159733Y-54175114D01*
X118731161Y-53746542D02*
X118778780Y-53841780D01*
X118778780Y-54079876D01*
X118731161Y-54175114D01*
X118635923Y-54222733D01*
X118540685Y-54222733D01*
X118445447Y-54175114D01*
X118397828Y-54079876D01*
X118397828Y-53841780D01*
X118350209Y-53746542D01*
X118731161Y-52841780D02*
X118778780Y-52937019D01*
X118778780Y-53127495D01*
X118731161Y-53222733D01*
X118683542Y-53270352D01*
X118588304Y-53317971D01*
X118302590Y-53317971D01*
X118207352Y-53270352D01*
X118159733Y-53222733D01*
X118112114Y-53127495D01*
X118112114Y-52937019D01*
X118159733Y-52841780D01*
X118778780Y-52413209D02*
X117778780Y-52413209D01*
X118397828Y-52317971D02*
X118778780Y-52032257D01*
X118112114Y-52032257D02*
X118493066Y-52413209D01*
X119904971Y-56484638D02*
X119952590Y-56341780D01*
X120000209Y-56294161D01*
X120095447Y-56246542D01*
X120238304Y-56246542D01*
X120333542Y-56294161D01*
X120381161Y-56341780D01*
X120428780Y-56437019D01*
X120428780Y-56817971D01*
X119428780Y-56817971D01*
X119428780Y-56484638D01*
X119476400Y-56389400D01*
X119524019Y-56341780D01*
X119619257Y-56294161D01*
X119714495Y-56294161D01*
X119809733Y-56341780D01*
X119857352Y-56389400D01*
X119904971Y-56484638D01*
X119904971Y-56817971D01*
X120381161Y-55437019D02*
X120428780Y-55532257D01*
X120428780Y-55722733D01*
X120381161Y-55817971D01*
X120285923Y-55865590D01*
X119904971Y-55865590D01*
X119809733Y-55817971D01*
X119762114Y-55722733D01*
X119762114Y-55532257D01*
X119809733Y-55437019D01*
X119904971Y-55389400D01*
X120000209Y-55389400D01*
X120095447Y-55865590D01*
X120428780Y-54817971D02*
X120381161Y-54913209D01*
X120285923Y-54960828D01*
X119428780Y-54960828D01*
X120428780Y-54294161D02*
X120381161Y-54389400D01*
X120333542Y-54437019D01*
X120238304Y-54484638D01*
X119952590Y-54484638D01*
X119857352Y-54437019D01*
X119809733Y-54389400D01*
X119762114Y-54294161D01*
X119762114Y-54151304D01*
X119809733Y-54056066D01*
X119857352Y-54008447D01*
X119952590Y-53960828D01*
X120238304Y-53960828D01*
X120333542Y-54008447D01*
X120381161Y-54056066D01*
X120428780Y-54151304D01*
X120428780Y-54294161D01*
X119762114Y-53627495D02*
X120428780Y-53437019D01*
X119952590Y-53246542D01*
X120428780Y-53056066D01*
X119762114Y-52865590D01*
D12*
X95319542Y-68760971D02*
X95319542Y-67260971D01*
X95890971Y-67260971D01*
X96033828Y-67332400D01*
X96105257Y-67403828D01*
X96176685Y-67546685D01*
X96176685Y-67760971D01*
X96105257Y-67903828D01*
X96033828Y-67975257D01*
X95890971Y-68046685D01*
X95319542Y-68046685D01*
X96819542Y-68760971D02*
X96819542Y-67760971D01*
X96819542Y-68046685D02*
X96890971Y-67903828D01*
X96962400Y-67832400D01*
X97105257Y-67760971D01*
X97248114Y-67760971D01*
X97962400Y-68760971D02*
X97819542Y-68689542D01*
X97748114Y-68618114D01*
X97676685Y-68475257D01*
X97676685Y-68046685D01*
X97748114Y-67903828D01*
X97819542Y-67832400D01*
X97962400Y-67760971D01*
X98176685Y-67760971D01*
X98319542Y-67832400D01*
X98390971Y-67903828D01*
X98462400Y-68046685D01*
X98462400Y-68475257D01*
X98390971Y-68618114D01*
X98319542Y-68689542D01*
X98176685Y-68760971D01*
X97962400Y-68760971D01*
X99105257Y-67760971D02*
X99105257Y-69260971D01*
X99105257Y-67832400D02*
X99248114Y-67760971D01*
X99533828Y-67760971D01*
X99676685Y-67832400D01*
X99748114Y-67903828D01*
X99819542Y-68046685D01*
X99819542Y-68475257D01*
X99748114Y-68618114D01*
X99676685Y-68689542D01*
X99533828Y-68760971D01*
X99248114Y-68760971D01*
X99105257Y-68689542D01*
X101033828Y-68689542D02*
X100890971Y-68760971D01*
X100605257Y-68760971D01*
X100462400Y-68689542D01*
X100390971Y-68546685D01*
X100390971Y-67975257D01*
X100462400Y-67832400D01*
X100605257Y-67760971D01*
X100890971Y-67760971D01*
X101033828Y-67832400D01*
X101105257Y-67975257D01*
X101105257Y-68118114D01*
X100390971Y-68260971D01*
X101962400Y-68760971D02*
X101819542Y-68689542D01*
X101748114Y-68546685D01*
X101748114Y-67260971D01*
X102748114Y-68760971D02*
X102605257Y-68689542D01*
X102533828Y-68546685D01*
X102533828Y-67260971D01*
X103890971Y-68689542D02*
X103748114Y-68760971D01*
X103462400Y-68760971D01*
X103319542Y-68689542D01*
X103248114Y-68546685D01*
X103248114Y-67975257D01*
X103319542Y-67832400D01*
X103462400Y-67760971D01*
X103748114Y-67760971D01*
X103890971Y-67832400D01*
X103962400Y-67975257D01*
X103962400Y-68118114D01*
X103248114Y-68260971D01*
X104605257Y-68760971D02*
X104605257Y-67760971D01*
X104605257Y-68046685D02*
X104676685Y-67903828D01*
X104748114Y-67832400D01*
X104890971Y-67760971D01*
X105033828Y-67760971D01*
X106605257Y-67403828D02*
X106676685Y-67332400D01*
X106819542Y-67260971D01*
X107176685Y-67260971D01*
X107319542Y-67332400D01*
X107390971Y-67403828D01*
X107462400Y-67546685D01*
X107462400Y-67689542D01*
X107390971Y-67903828D01*
X106533828Y-68760971D01*
X107462400Y-68760971D01*
X109248114Y-67975257D02*
X109748114Y-67975257D01*
X109962400Y-68760971D02*
X109248114Y-68760971D01*
X109248114Y-67260971D01*
X109962400Y-67260971D01*
X111248114Y-68760971D02*
X111248114Y-67260971D01*
X111248114Y-68689542D02*
X111105257Y-68760971D01*
X110819542Y-68760971D01*
X110676685Y-68689542D01*
X110605257Y-68618114D01*
X110533828Y-68475257D01*
X110533828Y-68046685D01*
X110605257Y-67903828D01*
X110676685Y-67832400D01*
X110819542Y-67760971D01*
X111105257Y-67760971D01*
X111248114Y-67832400D01*
X112605257Y-67760971D02*
X112605257Y-68975257D01*
X112533828Y-69118114D01*
X112462400Y-69189542D01*
X112319542Y-69260971D01*
X112105257Y-69260971D01*
X111962400Y-69189542D01*
X112605257Y-68689542D02*
X112462400Y-68760971D01*
X112176685Y-68760971D01*
X112033828Y-68689542D01*
X111962400Y-68618114D01*
X111890971Y-68475257D01*
X111890971Y-68046685D01*
X111962400Y-67903828D01*
X112033828Y-67832400D01*
X112176685Y-67760971D01*
X112462400Y-67760971D01*
X112605257Y-67832400D01*
X113890971Y-68689542D02*
X113748114Y-68760971D01*
X113462400Y-68760971D01*
X113319542Y-68689542D01*
X113248114Y-68546685D01*
X113248114Y-67975257D01*
X113319542Y-67832400D01*
X113462400Y-67760971D01*
X113748114Y-67760971D01*
X113890971Y-67832400D01*
X113962400Y-67975257D01*
X113962400Y-68118114D01*
X113248114Y-68260971D01*
X116248114Y-67975257D02*
X116462400Y-68046685D01*
X116533828Y-68118114D01*
X116605257Y-68260971D01*
X116605257Y-68475257D01*
X116533828Y-68618114D01*
X116462400Y-68689542D01*
X116319542Y-68760971D01*
X115748114Y-68760971D01*
X115748114Y-67260971D01*
X116248114Y-67260971D01*
X116390971Y-67332400D01*
X116462400Y-67403828D01*
X116533828Y-67546685D01*
X116533828Y-67689542D01*
X116462400Y-67832400D01*
X116390971Y-67903828D01*
X116248114Y-67975257D01*
X115748114Y-67975257D01*
X117248114Y-68760971D02*
X117248114Y-67760971D01*
X117248114Y-68046685D02*
X117319542Y-67903828D01*
X117390971Y-67832400D01*
X117533828Y-67760971D01*
X117676685Y-67760971D01*
X118748114Y-68689542D02*
X118605257Y-68760971D01*
X118319542Y-68760971D01*
X118176685Y-68689542D01*
X118105257Y-68546685D01*
X118105257Y-67975257D01*
X118176685Y-67832400D01*
X118319542Y-67760971D01*
X118605257Y-67760971D01*
X118748114Y-67832400D01*
X118819542Y-67975257D01*
X118819542Y-68118114D01*
X118105257Y-68260971D01*
X120105257Y-68760971D02*
X120105257Y-67975257D01*
X120033828Y-67832400D01*
X119890971Y-67760971D01*
X119605257Y-67760971D01*
X119462400Y-67832400D01*
X120105257Y-68689542D02*
X119962400Y-68760971D01*
X119605257Y-68760971D01*
X119462400Y-68689542D01*
X119390971Y-68546685D01*
X119390971Y-68403828D01*
X119462400Y-68260971D01*
X119605257Y-68189542D01*
X119962400Y-68189542D01*
X120105257Y-68118114D01*
X120819542Y-68760971D02*
X120819542Y-67260971D01*
X120962400Y-68189542D02*
X121390971Y-68760971D01*
X121390971Y-67760971D02*
X120819542Y-68332400D01*
X122248114Y-68760971D02*
X122105257Y-68689542D01*
X122033828Y-68618114D01*
X121962400Y-68475257D01*
X121962400Y-68046685D01*
X122033828Y-67903828D01*
X122105257Y-67832400D01*
X122248114Y-67760971D01*
X122462400Y-67760971D01*
X122605257Y-67832400D01*
X122676685Y-67903828D01*
X122748114Y-68046685D01*
X122748114Y-68475257D01*
X122676685Y-68618114D01*
X122605257Y-68689542D01*
X122462400Y-68760971D01*
X122248114Y-68760971D01*
X124033828Y-67760971D02*
X124033828Y-68760971D01*
X123390971Y-67760971D02*
X123390971Y-68546685D01*
X123462400Y-68689542D01*
X123605257Y-68760971D01*
X123819542Y-68760971D01*
X123962400Y-68689542D01*
X124033828Y-68618114D01*
X124533828Y-67760971D02*
X125105257Y-67760971D01*
X124748114Y-67260971D02*
X124748114Y-68546685D01*
X124819542Y-68689542D01*
X124962400Y-68760971D01*
X125105257Y-68760971D01*
X95248114Y-71239542D02*
X95462400Y-71310971D01*
X95819542Y-71310971D01*
X95962400Y-71239542D01*
X96033828Y-71168114D01*
X96105257Y-71025257D01*
X96105257Y-70882400D01*
X96033828Y-70739542D01*
X95962400Y-70668114D01*
X95819542Y-70596685D01*
X95533828Y-70525257D01*
X95390971Y-70453828D01*
X95319542Y-70382400D01*
X95248114Y-70239542D01*
X95248114Y-70096685D01*
X95319542Y-69953828D01*
X95390971Y-69882400D01*
X95533828Y-69810971D01*
X95890971Y-69810971D01*
X96105257Y-69882400D01*
X96962400Y-71310971D02*
X96819542Y-71239542D01*
X96748114Y-71168114D01*
X96676685Y-71025257D01*
X96676685Y-70596685D01*
X96748114Y-70453828D01*
X96819542Y-70382400D01*
X96962400Y-70310971D01*
X97176685Y-70310971D01*
X97319542Y-70382400D01*
X97390971Y-70453828D01*
X97462400Y-70596685D01*
X97462400Y-71025257D01*
X97390971Y-71168114D01*
X97319542Y-71239542D01*
X97176685Y-71310971D01*
X96962400Y-71310971D01*
X98105257Y-70310971D02*
X98105257Y-71310971D01*
X98105257Y-70453828D02*
X98176685Y-70382400D01*
X98319542Y-70310971D01*
X98533828Y-70310971D01*
X98676685Y-70382400D01*
X98748114Y-70525257D01*
X98748114Y-71310971D01*
X100105257Y-71310971D02*
X100105257Y-70525257D01*
X100033828Y-70382400D01*
X99890971Y-70310971D01*
X99605257Y-70310971D01*
X99462400Y-70382400D01*
X100105257Y-71239542D02*
X99962400Y-71310971D01*
X99605257Y-71310971D01*
X99462400Y-71239542D01*
X99390971Y-71096685D01*
X99390971Y-70953828D01*
X99462400Y-70810971D01*
X99605257Y-70739542D01*
X99962400Y-70739542D01*
X100105257Y-70668114D01*
X100819542Y-71310971D02*
X100819542Y-70310971D01*
X100819542Y-70596685D02*
X100890971Y-70453828D01*
X100962400Y-70382400D01*
X101105257Y-70310971D01*
X101248114Y-70310971D01*
X103748114Y-71168114D02*
X103676685Y-71239542D01*
X103462400Y-71310971D01*
X103319542Y-71310971D01*
X103105257Y-71239542D01*
X102962400Y-71096685D01*
X102890971Y-70953828D01*
X102819542Y-70668114D01*
X102819542Y-70453828D01*
X102890971Y-70168114D01*
X102962400Y-70025257D01*
X103105257Y-69882400D01*
X103319542Y-69810971D01*
X103462400Y-69810971D01*
X103676685Y-69882400D01*
X103748114Y-69953828D01*
X104605257Y-71310971D02*
X104462400Y-71239542D01*
X104390971Y-71168114D01*
X104319542Y-71025257D01*
X104319542Y-70596685D01*
X104390971Y-70453828D01*
X104462400Y-70382400D01*
X104605257Y-70310971D01*
X104819542Y-70310971D01*
X104962400Y-70382400D01*
X105033828Y-70453828D01*
X105105257Y-70596685D01*
X105105257Y-71025257D01*
X105033828Y-71168114D01*
X104962400Y-71239542D01*
X104819542Y-71310971D01*
X104605257Y-71310971D01*
X105748114Y-70310971D02*
X105748114Y-71310971D01*
X105748114Y-70453828D02*
X105819542Y-70382400D01*
X105962400Y-70310971D01*
X106176685Y-70310971D01*
X106319542Y-70382400D01*
X106390971Y-70525257D01*
X106390971Y-71310971D01*
X107105257Y-70310971D02*
X107105257Y-71310971D01*
X107105257Y-70453828D02*
X107176685Y-70382400D01*
X107319542Y-70310971D01*
X107533828Y-70310971D01*
X107676685Y-70382400D01*
X107748114Y-70525257D01*
X107748114Y-71310971D01*
X109033828Y-71239542D02*
X108890971Y-71310971D01*
X108605257Y-71310971D01*
X108462400Y-71239542D01*
X108390971Y-71096685D01*
X108390971Y-70525257D01*
X108462400Y-70382400D01*
X108605257Y-70310971D01*
X108890971Y-70310971D01*
X109033828Y-70382400D01*
X109105257Y-70525257D01*
X109105257Y-70668114D01*
X108390971Y-70810971D01*
X110390971Y-71239542D02*
X110248114Y-71310971D01*
X109962400Y-71310971D01*
X109819542Y-71239542D01*
X109748114Y-71168114D01*
X109676685Y-71025257D01*
X109676685Y-70596685D01*
X109748114Y-70453828D01*
X109819542Y-70382400D01*
X109962400Y-70310971D01*
X110248114Y-70310971D01*
X110390971Y-70382400D01*
X110819542Y-70310971D02*
X111390971Y-70310971D01*
X111033828Y-69810971D02*
X111033828Y-71096685D01*
X111105257Y-71239542D01*
X111248114Y-71310971D01*
X111390971Y-71310971D01*
X95319542Y-73860971D02*
X95319542Y-72360971D01*
X95676685Y-72360971D01*
X95890971Y-72432400D01*
X96033828Y-72575257D01*
X96105257Y-72718114D01*
X96176685Y-73003828D01*
X96176685Y-73218114D01*
X96105257Y-73503828D01*
X96033828Y-73646685D01*
X95890971Y-73789542D01*
X95676685Y-73860971D01*
X95319542Y-73860971D01*
X96819542Y-73860971D02*
X96819542Y-72360971D01*
X97390971Y-72360971D01*
X97533828Y-72432400D01*
X97605257Y-72503828D01*
X97676685Y-72646685D01*
X97676685Y-72860971D01*
X97605257Y-73003828D01*
X97533828Y-73075257D01*
X97390971Y-73146685D01*
X96819542Y-73146685D01*
X99105257Y-72432400D02*
X98962400Y-72360971D01*
X98748114Y-72360971D01*
X98533828Y-72432400D01*
X98390971Y-72575257D01*
X98319542Y-72718114D01*
X98248114Y-73003828D01*
X98248114Y-73218114D01*
X98319542Y-73503828D01*
X98390971Y-73646685D01*
X98533828Y-73789542D01*
X98748114Y-73860971D01*
X98890971Y-73860971D01*
X99105257Y-73789542D01*
X99176685Y-73718114D01*
X99176685Y-73218114D01*
X98890971Y-73218114D01*
X100890971Y-72503828D02*
X100962400Y-72432400D01*
X101105257Y-72360971D01*
X101462400Y-72360971D01*
X101605257Y-72432400D01*
X101676685Y-72503828D01*
X101748114Y-72646685D01*
X101748114Y-72789542D01*
X101676685Y-73003828D01*
X100819542Y-73860971D01*
X101748114Y-73860971D01*
X102676685Y-72360971D02*
X102819542Y-72360971D01*
X102962400Y-72432400D01*
X103033828Y-72503828D01*
X103105257Y-72646685D01*
X103176685Y-72932400D01*
X103176685Y-73289542D01*
X103105257Y-73575257D01*
X103033828Y-73718114D01*
X102962400Y-73789542D01*
X102819542Y-73860971D01*
X102676685Y-73860971D01*
X102533828Y-73789542D01*
X102462400Y-73718114D01*
X102390971Y-73575257D01*
X102319542Y-73289542D01*
X102319542Y-72932400D01*
X102390971Y-72646685D01*
X102462400Y-72503828D01*
X102533828Y-72432400D01*
X102676685Y-72360971D01*
X103748114Y-72503828D02*
X103819542Y-72432400D01*
X103962400Y-72360971D01*
X104319542Y-72360971D01*
X104462400Y-72432400D01*
X104533828Y-72503828D01*
X104605257Y-72646685D01*
X104605257Y-72789542D01*
X104533828Y-73003828D01*
X103676685Y-73860971D01*
X104605257Y-73860971D01*
X105962400Y-72360971D02*
X105248114Y-72360971D01*
X105176685Y-73075257D01*
X105248114Y-73003828D01*
X105390971Y-72932400D01*
X105748114Y-72932400D01*
X105890971Y-73003828D01*
X105962400Y-73075257D01*
X106033828Y-73218114D01*
X106033828Y-73575257D01*
X105962400Y-73718114D01*
X105890971Y-73789542D01*
X105748114Y-73860971D01*
X105390971Y-73860971D01*
X105248114Y-73789542D01*
X105176685Y-73718114D01*
X96176685Y-76410971D02*
X95676685Y-75696685D01*
X95319542Y-76410971D02*
X95319542Y-74910971D01*
X95890971Y-74910971D01*
X96033828Y-74982400D01*
X96105257Y-75053828D01*
X96176685Y-75196685D01*
X96176685Y-75410971D01*
X96105257Y-75553828D01*
X96033828Y-75625257D01*
X95890971Y-75696685D01*
X95319542Y-75696685D01*
X97390971Y-76339542D02*
X97248114Y-76410971D01*
X96962400Y-76410971D01*
X96819542Y-76339542D01*
X96748114Y-76196685D01*
X96748114Y-75625257D01*
X96819542Y-75482400D01*
X96962400Y-75410971D01*
X97248114Y-75410971D01*
X97390971Y-75482400D01*
X97462400Y-75625257D01*
X97462400Y-75768114D01*
X96748114Y-75910971D01*
X97962400Y-75410971D02*
X98319542Y-76410971D01*
X98676685Y-75410971D01*
X99533828Y-74910971D02*
X99676685Y-74910971D01*
X99819542Y-74982400D01*
X99890971Y-75053828D01*
X99962400Y-75196685D01*
X100033828Y-75482400D01*
X100033828Y-75839542D01*
X99962400Y-76125257D01*
X99890971Y-76268114D01*
X99819542Y-76339542D01*
X99676685Y-76410971D01*
X99533828Y-76410971D01*
X99390971Y-76339542D01*
X99319542Y-76268114D01*
X99248114Y-76125257D01*
X99176685Y-75839542D01*
X99176685Y-75482400D01*
X99248114Y-75196685D01*
X99319542Y-75053828D01*
X99390971Y-74982400D01*
X99533828Y-74910971D01*
D11*
X96577209Y-62549114D02*
X95815304Y-62834828D01*
X96577209Y-63120542D01*
X96910542Y-62215780D02*
X97481971Y-62215780D01*
X97196257Y-63215780D02*
X97196257Y-62215780D01*
X97720066Y-62215780D02*
X98386733Y-63215780D01*
X98386733Y-62215780D02*
X97720066Y-63215780D01*
X95696257Y-60009114D02*
X96458161Y-60294828D01*
X95696257Y-60580542D01*
X97505780Y-60675780D02*
X97172447Y-60199590D01*
X96934352Y-60675780D02*
X96934352Y-59675780D01*
X97315304Y-59675780D01*
X97410542Y-59723400D01*
X97458161Y-59771019D01*
X97505780Y-59866257D01*
X97505780Y-60009114D01*
X97458161Y-60104352D01*
X97410542Y-60151971D01*
X97315304Y-60199590D01*
X96934352Y-60199590D01*
X97839114Y-59675780D02*
X98505780Y-60675780D01*
X98505780Y-59675780D02*
X97839114Y-60675780D01*
X96775685Y-58389780D02*
X96775685Y-57389780D01*
X97347114Y-58389780D01*
X97347114Y-57389780D01*
X98394733Y-58294542D02*
X98347114Y-58342161D01*
X98204257Y-58389780D01*
X98109019Y-58389780D01*
X97966161Y-58342161D01*
X97870923Y-58246923D01*
X97823304Y-58151685D01*
X97775685Y-57961209D01*
X97775685Y-57818352D01*
X97823304Y-57627876D01*
X97870923Y-57532638D01*
X97966161Y-57437400D01*
X98109019Y-57389780D01*
X98204257Y-57389780D01*
X98347114Y-57437400D01*
X98394733Y-57485019D01*
X96164542Y-54595780D02*
X96497876Y-55595780D01*
X96831209Y-54595780D01*
X97116923Y-55548161D02*
X97212161Y-55595780D01*
X97402638Y-55595780D01*
X97497876Y-55548161D01*
X97545495Y-55452923D01*
X97545495Y-55405304D01*
X97497876Y-55310066D01*
X97402638Y-55262447D01*
X97259780Y-55262447D01*
X97164542Y-55214828D01*
X97116923Y-55119590D01*
X97116923Y-55071971D01*
X97164542Y-54976733D01*
X97259780Y-54929114D01*
X97402638Y-54929114D01*
X97497876Y-54976733D01*
X97926447Y-55548161D02*
X98021685Y-55595780D01*
X98212161Y-55595780D01*
X98307400Y-55548161D01*
X98355019Y-55452923D01*
X98355019Y-55405304D01*
X98307400Y-55310066D01*
X98212161Y-55262447D01*
X98069304Y-55262447D01*
X97974066Y-55214828D01*
X97926447Y-55119590D01*
X97926447Y-55071971D01*
X97974066Y-54976733D01*
X98069304Y-54929114D01*
X98212161Y-54929114D01*
X98307400Y-54976733D01*
X149020161Y-125595400D02*
X149067780Y-125452542D01*
X149067780Y-125214447D01*
X149020161Y-125119209D01*
X148972542Y-125071590D01*
X148877304Y-125023971D01*
X148782066Y-125023971D01*
X148686828Y-125071590D01*
X148639209Y-125119209D01*
X148591590Y-125214447D01*
X148543971Y-125404923D01*
X148496352Y-125500161D01*
X148448733Y-125547780D01*
X148353495Y-125595400D01*
X148258257Y-125595400D01*
X148163019Y-125547780D01*
X148115400Y-125500161D01*
X148067780Y-125404923D01*
X148067780Y-125166828D01*
X148115400Y-125023971D01*
X149067780Y-124452542D02*
X149020161Y-124547780D01*
X148972542Y-124595400D01*
X148877304Y-124643019D01*
X148591590Y-124643019D01*
X148496352Y-124595400D01*
X148448733Y-124547780D01*
X148401114Y-124452542D01*
X148401114Y-124309685D01*
X148448733Y-124214447D01*
X148496352Y-124166828D01*
X148591590Y-124119209D01*
X148877304Y-124119209D01*
X148972542Y-124166828D01*
X149020161Y-124214447D01*
X149067780Y-124309685D01*
X149067780Y-124452542D01*
X148401114Y-123690638D02*
X149067780Y-123690638D01*
X148496352Y-123690638D02*
X148448733Y-123643019D01*
X148401114Y-123547780D01*
X148401114Y-123404923D01*
X148448733Y-123309685D01*
X148543971Y-123262066D01*
X149067780Y-123262066D01*
X149067780Y-122357304D02*
X148543971Y-122357304D01*
X148448733Y-122404923D01*
X148401114Y-122500161D01*
X148401114Y-122690638D01*
X148448733Y-122785876D01*
X149020161Y-122357304D02*
X149067780Y-122452542D01*
X149067780Y-122690638D01*
X149020161Y-122785876D01*
X148924923Y-122833495D01*
X148829685Y-122833495D01*
X148734447Y-122785876D01*
X148686828Y-122690638D01*
X148686828Y-122452542D01*
X148639209Y-122357304D01*
X149067780Y-121881114D02*
X148401114Y-121881114D01*
X148591590Y-121881114D02*
X148496352Y-121833495D01*
X148448733Y-121785876D01*
X148401114Y-121690638D01*
X148401114Y-121595400D01*
X149067780Y-120738257D02*
X149067780Y-121309685D01*
X149067780Y-121023971D02*
X148067780Y-121023971D01*
X148210638Y-121119209D01*
X148305876Y-121214447D01*
X148353495Y-121309685D01*
X148067780Y-120404923D02*
X148067780Y-119738257D01*
X149067780Y-120166828D01*
X148686828Y-118595400D02*
X148686828Y-117833495D01*
X148686828Y-116595400D02*
X148686828Y-115833495D01*
X148686828Y-114595400D02*
X148686828Y-113833495D01*
X148401114Y-113357304D02*
X148686828Y-112595400D01*
X148972542Y-113357304D01*
X149020161Y-111404923D02*
X149067780Y-111262066D01*
X149067780Y-111023971D01*
X149020161Y-110928733D01*
X148972542Y-110881114D01*
X148877304Y-110833495D01*
X148782066Y-110833495D01*
X148686828Y-110881114D01*
X148639209Y-110928733D01*
X148591590Y-111023971D01*
X148543971Y-111214447D01*
X148496352Y-111309685D01*
X148448733Y-111357304D01*
X148353495Y-111404923D01*
X148258257Y-111404923D01*
X148163019Y-111357304D01*
X148115400Y-111309685D01*
X148067780Y-111214447D01*
X148067780Y-110976352D01*
X148115400Y-110833495D01*
X149067780Y-110262066D02*
X149020161Y-110357304D01*
X148972542Y-110404923D01*
X148877304Y-110452542D01*
X148591590Y-110452542D01*
X148496352Y-110404923D01*
X148448733Y-110357304D01*
X148401114Y-110262066D01*
X148401114Y-110119209D01*
X148448733Y-110023971D01*
X148496352Y-109976352D01*
X148591590Y-109928733D01*
X148877304Y-109928733D01*
X148972542Y-109976352D01*
X149020161Y-110023971D01*
X149067780Y-110119209D01*
X149067780Y-110262066D01*
X148401114Y-109500161D02*
X149067780Y-109500161D01*
X148496352Y-109500161D02*
X148448733Y-109452542D01*
X148401114Y-109357304D01*
X148401114Y-109214447D01*
X148448733Y-109119209D01*
X148543971Y-109071590D01*
X149067780Y-109071590D01*
X149067780Y-108166828D02*
X148543971Y-108166828D01*
X148448733Y-108214447D01*
X148401114Y-108309685D01*
X148401114Y-108500161D01*
X148448733Y-108595400D01*
X149020161Y-108166828D02*
X149067780Y-108262066D01*
X149067780Y-108500161D01*
X149020161Y-108595400D01*
X148924923Y-108643019D01*
X148829685Y-108643019D01*
X148734447Y-108595400D01*
X148686828Y-108500161D01*
X148686828Y-108262066D01*
X148639209Y-108166828D01*
X149067780Y-107690638D02*
X148401114Y-107690638D01*
X148591590Y-107690638D02*
X148496352Y-107643019D01*
X148448733Y-107595400D01*
X148401114Y-107500161D01*
X148401114Y-107404923D01*
X148163019Y-107119209D02*
X148115400Y-107071590D01*
X148067780Y-106976352D01*
X148067780Y-106738257D01*
X148115400Y-106643019D01*
X148163019Y-106595400D01*
X148258257Y-106547780D01*
X148353495Y-106547780D01*
X148496352Y-106595400D01*
X149067780Y-107166828D01*
X149067780Y-106547780D01*
X148401114Y-105690638D02*
X149067780Y-105690638D01*
X148020161Y-105928733D02*
X148734447Y-106166828D01*
X148734447Y-105547780D01*
X148766161Y-97941209D02*
X148813780Y-97798352D01*
X148813780Y-97560257D01*
X148766161Y-97465019D01*
X148718542Y-97417400D01*
X148623304Y-97369780D01*
X148528066Y-97369780D01*
X148432828Y-97417400D01*
X148385209Y-97465019D01*
X148337590Y-97560257D01*
X148289971Y-97750733D01*
X148242352Y-97845971D01*
X148194733Y-97893590D01*
X148099495Y-97941209D01*
X148004257Y-97941209D01*
X147909019Y-97893590D01*
X147861400Y-97845971D01*
X147813780Y-97750733D01*
X147813780Y-97512638D01*
X147861400Y-97369780D01*
X148813780Y-96798352D02*
X148766161Y-96893590D01*
X148718542Y-96941209D01*
X148623304Y-96988828D01*
X148337590Y-96988828D01*
X148242352Y-96941209D01*
X148194733Y-96893590D01*
X148147114Y-96798352D01*
X148147114Y-96655495D01*
X148194733Y-96560257D01*
X148242352Y-96512638D01*
X148337590Y-96465019D01*
X148623304Y-96465019D01*
X148718542Y-96512638D01*
X148766161Y-96560257D01*
X148813780Y-96655495D01*
X148813780Y-96798352D01*
X148147114Y-96036447D02*
X148813780Y-96036447D01*
X148242352Y-96036447D02*
X148194733Y-95988828D01*
X148147114Y-95893590D01*
X148147114Y-95750733D01*
X148194733Y-95655495D01*
X148289971Y-95607876D01*
X148813780Y-95607876D01*
X148813780Y-94703114D02*
X148289971Y-94703114D01*
X148194733Y-94750733D01*
X148147114Y-94845971D01*
X148147114Y-95036447D01*
X148194733Y-95131685D01*
X148766161Y-94703114D02*
X148813780Y-94798352D01*
X148813780Y-95036447D01*
X148766161Y-95131685D01*
X148670923Y-95179304D01*
X148575685Y-95179304D01*
X148480447Y-95131685D01*
X148432828Y-95036447D01*
X148432828Y-94798352D01*
X148385209Y-94703114D01*
X148813780Y-94226923D02*
X148147114Y-94226923D01*
X148337590Y-94226923D02*
X148242352Y-94179304D01*
X148194733Y-94131685D01*
X148147114Y-94036447D01*
X148147114Y-93941209D01*
X148813780Y-93560257D02*
X148813780Y-93369780D01*
X148766161Y-93274542D01*
X148718542Y-93226923D01*
X148575685Y-93131685D01*
X148385209Y-93084066D01*
X148004257Y-93084066D01*
X147909019Y-93131685D01*
X147861400Y-93179304D01*
X147813780Y-93274542D01*
X147813780Y-93465019D01*
X147861400Y-93560257D01*
X147909019Y-93607876D01*
X148004257Y-93655495D01*
X148242352Y-93655495D01*
X148337590Y-93607876D01*
X148385209Y-93560257D01*
X148432828Y-93465019D01*
X148432828Y-93274542D01*
X148385209Y-93179304D01*
X148337590Y-93131685D01*
X148242352Y-93084066D01*
X148432828Y-91893590D02*
X148432828Y-91131685D01*
X148432828Y-89893590D02*
X148432828Y-89131685D01*
X148432828Y-87893590D02*
X148432828Y-87131685D01*
X148147114Y-86655495D02*
X148432828Y-85893590D01*
X148718542Y-86655495D01*
X148766161Y-84703114D02*
X148813780Y-84560257D01*
X148813780Y-84322161D01*
X148766161Y-84226923D01*
X148718542Y-84179304D01*
X148623304Y-84131685D01*
X148528066Y-84131685D01*
X148432828Y-84179304D01*
X148385209Y-84226923D01*
X148337590Y-84322161D01*
X148289971Y-84512638D01*
X148242352Y-84607876D01*
X148194733Y-84655495D01*
X148099495Y-84703114D01*
X148004257Y-84703114D01*
X147909019Y-84655495D01*
X147861400Y-84607876D01*
X147813780Y-84512638D01*
X147813780Y-84274542D01*
X147861400Y-84131685D01*
X148813780Y-83560257D02*
X148766161Y-83655495D01*
X148718542Y-83703114D01*
X148623304Y-83750733D01*
X148337590Y-83750733D01*
X148242352Y-83703114D01*
X148194733Y-83655495D01*
X148147114Y-83560257D01*
X148147114Y-83417400D01*
X148194733Y-83322161D01*
X148242352Y-83274542D01*
X148337590Y-83226923D01*
X148623304Y-83226923D01*
X148718542Y-83274542D01*
X148766161Y-83322161D01*
X148813780Y-83417400D01*
X148813780Y-83560257D01*
X148147114Y-82798352D02*
X148813780Y-82798352D01*
X148242352Y-82798352D02*
X148194733Y-82750733D01*
X148147114Y-82655495D01*
X148147114Y-82512638D01*
X148194733Y-82417400D01*
X148289971Y-82369780D01*
X148813780Y-82369780D01*
X148813780Y-81465019D02*
X148289971Y-81465019D01*
X148194733Y-81512638D01*
X148147114Y-81607876D01*
X148147114Y-81798352D01*
X148194733Y-81893590D01*
X148766161Y-81465019D02*
X148813780Y-81560257D01*
X148813780Y-81798352D01*
X148766161Y-81893590D01*
X148670923Y-81941209D01*
X148575685Y-81941209D01*
X148480447Y-81893590D01*
X148432828Y-81798352D01*
X148432828Y-81560257D01*
X148385209Y-81465019D01*
X148813780Y-80988828D02*
X148147114Y-80988828D01*
X148337590Y-80988828D02*
X148242352Y-80941209D01*
X148194733Y-80893590D01*
X148147114Y-80798352D01*
X148147114Y-80703114D01*
X148813780Y-79845971D02*
X148813780Y-80417400D01*
X148813780Y-80131685D02*
X147813780Y-80131685D01*
X147956638Y-80226923D01*
X148051876Y-80322161D01*
X148099495Y-80417400D01*
X147813780Y-78988828D02*
X147813780Y-79179304D01*
X147861400Y-79274542D01*
X147909019Y-79322161D01*
X148051876Y-79417400D01*
X148242352Y-79465019D01*
X148623304Y-79465019D01*
X148718542Y-79417400D01*
X148766161Y-79369780D01*
X148813780Y-79274542D01*
X148813780Y-79084066D01*
X148766161Y-78988828D01*
X148718542Y-78941209D01*
X148623304Y-78893590D01*
X148385209Y-78893590D01*
X148289971Y-78941209D01*
X148242352Y-78988828D01*
X148194733Y-79084066D01*
X148194733Y-79274542D01*
X148242352Y-79369780D01*
X148289971Y-79417400D01*
X148385209Y-79465019D01*
X148766161Y-71303019D02*
X148813780Y-71160161D01*
X148813780Y-70922066D01*
X148766161Y-70826828D01*
X148718542Y-70779209D01*
X148623304Y-70731590D01*
X148528066Y-70731590D01*
X148432828Y-70779209D01*
X148385209Y-70826828D01*
X148337590Y-70922066D01*
X148289971Y-71112542D01*
X148242352Y-71207780D01*
X148194733Y-71255400D01*
X148099495Y-71303019D01*
X148004257Y-71303019D01*
X147909019Y-71255400D01*
X147861400Y-71207780D01*
X147813780Y-71112542D01*
X147813780Y-70874447D01*
X147861400Y-70731590D01*
X148813780Y-70160161D02*
X148766161Y-70255400D01*
X148718542Y-70303019D01*
X148623304Y-70350638D01*
X148337590Y-70350638D01*
X148242352Y-70303019D01*
X148194733Y-70255400D01*
X148147114Y-70160161D01*
X148147114Y-70017304D01*
X148194733Y-69922066D01*
X148242352Y-69874447D01*
X148337590Y-69826828D01*
X148623304Y-69826828D01*
X148718542Y-69874447D01*
X148766161Y-69922066D01*
X148813780Y-70017304D01*
X148813780Y-70160161D01*
X148147114Y-69398257D02*
X148813780Y-69398257D01*
X148242352Y-69398257D02*
X148194733Y-69350638D01*
X148147114Y-69255400D01*
X148147114Y-69112542D01*
X148194733Y-69017304D01*
X148289971Y-68969685D01*
X148813780Y-68969685D01*
X148813780Y-68064923D02*
X148289971Y-68064923D01*
X148194733Y-68112542D01*
X148147114Y-68207780D01*
X148147114Y-68398257D01*
X148194733Y-68493495D01*
X148766161Y-68064923D02*
X148813780Y-68160161D01*
X148813780Y-68398257D01*
X148766161Y-68493495D01*
X148670923Y-68541114D01*
X148575685Y-68541114D01*
X148480447Y-68493495D01*
X148432828Y-68398257D01*
X148432828Y-68160161D01*
X148385209Y-68064923D01*
X148813780Y-67588733D02*
X148147114Y-67588733D01*
X148337590Y-67588733D02*
X148242352Y-67541114D01*
X148194733Y-67493495D01*
X148147114Y-67398257D01*
X148147114Y-67303019D01*
X148813780Y-66445876D02*
X148813780Y-67017304D01*
X148813780Y-66731590D02*
X147813780Y-66731590D01*
X147956638Y-66826828D01*
X148051876Y-66922066D01*
X148099495Y-67017304D01*
X148432828Y-65255400D02*
X148432828Y-64493495D01*
X148432828Y-63255400D02*
X148432828Y-62493495D01*
X148432828Y-61255400D02*
X148432828Y-60493495D01*
X148147114Y-60017304D02*
X148432828Y-59255400D01*
X148718542Y-60017304D01*
X148766161Y-58064923D02*
X148813780Y-57922066D01*
X148813780Y-57683971D01*
X148766161Y-57588733D01*
X148718542Y-57541114D01*
X148623304Y-57493495D01*
X148528066Y-57493495D01*
X148432828Y-57541114D01*
X148385209Y-57588733D01*
X148337590Y-57683971D01*
X148289971Y-57874447D01*
X148242352Y-57969685D01*
X148194733Y-58017304D01*
X148099495Y-58064923D01*
X148004257Y-58064923D01*
X147909019Y-58017304D01*
X147861400Y-57969685D01*
X147813780Y-57874447D01*
X147813780Y-57636352D01*
X147861400Y-57493495D01*
X148813780Y-56922066D02*
X148766161Y-57017304D01*
X148718542Y-57064923D01*
X148623304Y-57112542D01*
X148337590Y-57112542D01*
X148242352Y-57064923D01*
X148194733Y-57017304D01*
X148147114Y-56922066D01*
X148147114Y-56779209D01*
X148194733Y-56683971D01*
X148242352Y-56636352D01*
X148337590Y-56588733D01*
X148623304Y-56588733D01*
X148718542Y-56636352D01*
X148766161Y-56683971D01*
X148813780Y-56779209D01*
X148813780Y-56922066D01*
X148147114Y-56160161D02*
X148813780Y-56160161D01*
X148242352Y-56160161D02*
X148194733Y-56112542D01*
X148147114Y-56017304D01*
X148147114Y-55874447D01*
X148194733Y-55779209D01*
X148289971Y-55731590D01*
X148813780Y-55731590D01*
X148813780Y-54826828D02*
X148289971Y-54826828D01*
X148194733Y-54874447D01*
X148147114Y-54969685D01*
X148147114Y-55160161D01*
X148194733Y-55255400D01*
X148766161Y-54826828D02*
X148813780Y-54922066D01*
X148813780Y-55160161D01*
X148766161Y-55255400D01*
X148670923Y-55303019D01*
X148575685Y-55303019D01*
X148480447Y-55255400D01*
X148432828Y-55160161D01*
X148432828Y-54922066D01*
X148385209Y-54826828D01*
X148813780Y-54350638D02*
X148147114Y-54350638D01*
X148337590Y-54350638D02*
X148242352Y-54303019D01*
X148194733Y-54255400D01*
X148147114Y-54160161D01*
X148147114Y-54064923D01*
X148242352Y-53588733D02*
X148194733Y-53683971D01*
X148147114Y-53731590D01*
X148051876Y-53779209D01*
X148004257Y-53779209D01*
X147909019Y-53731590D01*
X147861400Y-53683971D01*
X147813780Y-53588733D01*
X147813780Y-53398257D01*
X147861400Y-53303019D01*
X147909019Y-53255400D01*
X148004257Y-53207780D01*
X148051876Y-53207780D01*
X148147114Y-53255400D01*
X148194733Y-53303019D01*
X148242352Y-53398257D01*
X148242352Y-53588733D01*
X148289971Y-53683971D01*
X148337590Y-53731590D01*
X148432828Y-53779209D01*
X148623304Y-53779209D01*
X148718542Y-53731590D01*
X148766161Y-53683971D01*
X148813780Y-53588733D01*
X148813780Y-53398257D01*
X148766161Y-53303019D01*
X148718542Y-53255400D01*
X148623304Y-53207780D01*
X148432828Y-53207780D01*
X148337590Y-53255400D01*
X148289971Y-53303019D01*
X148242352Y-53398257D01*
D14*
X149571400Y-130133400D02*
X149571400Y-128803400D01*
X150901400Y-130133400D02*
X149571400Y-130133400D01*
X152171400Y-130133400D02*
X152171400Y-127473400D01*
X152171400Y-127473400D02*
X157311400Y-127473400D01*
X152171400Y-130133400D02*
X157311400Y-130133400D01*
X157311400Y-130133400D02*
X157311400Y-127473400D01*
X149548540Y-110552540D02*
X149548540Y-109222540D01*
X150878540Y-110552540D02*
X149548540Y-110552540D01*
X152148540Y-110552540D02*
X152148540Y-107892540D01*
X152148540Y-107892540D02*
X157288540Y-107892540D01*
X152148540Y-110552540D02*
X157288540Y-110552540D01*
X157288540Y-110552540D02*
X157288540Y-107892540D01*
X149548540Y-88454540D02*
X149548540Y-87124540D01*
X150878540Y-88454540D02*
X149548540Y-88454540D01*
X152148540Y-88454540D02*
X152148540Y-85794540D01*
X152148540Y-85794540D02*
X157288540Y-85794540D01*
X152148540Y-88454540D02*
X157288540Y-88454540D01*
X157288540Y-88454540D02*
X157288540Y-85794540D01*
X145146540Y-88334540D02*
X143496540Y-88334540D01*
X145146540Y-98614540D02*
X145146540Y-88334540D01*
X139846540Y-98614540D02*
X145146540Y-98614540D01*
X139846540Y-88334540D02*
X139846540Y-98614540D01*
X141496540Y-88334540D02*
X139846540Y-88334540D01*
X143496540Y-88334540D02*
G75*
G02X141496540Y-88334540I-1000000J0D01*
G01*
X149548540Y-90994540D02*
X149548540Y-89664540D01*
X150878540Y-90994540D02*
X149548540Y-90994540D01*
X152148540Y-90994540D02*
X152148540Y-88334540D01*
X152148540Y-88334540D02*
X157288540Y-88334540D01*
X152148540Y-90994540D02*
X157288540Y-90994540D01*
X157288540Y-90994540D02*
X157288540Y-88334540D01*
X149548540Y-85914540D02*
X149548540Y-84584540D01*
X150878540Y-85914540D02*
X149548540Y-85914540D01*
X152148540Y-85914540D02*
X152148540Y-83254540D01*
X152148540Y-83254540D02*
X157288540Y-83254540D01*
X152148540Y-85914540D02*
X157288540Y-85914540D01*
X157288540Y-85914540D02*
X157288540Y-83254540D01*
X149510800Y-76516540D02*
X149510800Y-75186540D01*
X150840800Y-76516540D02*
X149510800Y-76516540D01*
X152110800Y-76516540D02*
X152110800Y-73856540D01*
X152110800Y-73856540D02*
X157250800Y-73856540D01*
X152110800Y-76516540D02*
X157250800Y-76516540D01*
X157250800Y-76516540D02*
X157250800Y-73856540D01*
X99025400Y-53813400D02*
X100355400Y-53813400D01*
X99025400Y-55143400D02*
X99025400Y-53813400D01*
X99025400Y-56413400D02*
X101685400Y-56413400D01*
X101685400Y-56413400D02*
X101685400Y-64093400D01*
X99025400Y-56413400D02*
X99025400Y-64093400D01*
X99025400Y-64093400D02*
X101685400Y-64093400D01*
X145146540Y-105352540D02*
X143496540Y-105352540D01*
X145146540Y-115632540D02*
X145146540Y-105352540D01*
X139846540Y-115632540D02*
X145146540Y-115632540D01*
X139846540Y-105352540D02*
X139846540Y-115632540D01*
X141496540Y-105352540D02*
X139846540Y-105352540D01*
X143496540Y-105352540D02*
G75*
G02X141496540Y-105352540I-1000000J0D01*
G01*
X145146540Y-115512540D02*
X143496540Y-115512540D01*
X145146540Y-125792540D02*
X145146540Y-115512540D01*
X139846540Y-125792540D02*
X145146540Y-125792540D01*
X139846540Y-115512540D02*
X139846540Y-125792540D01*
X141496540Y-115512540D02*
X139846540Y-115512540D01*
X143496540Y-115512540D02*
G75*
G02X141496540Y-115512540I-1000000J0D01*
G01*
X145146540Y-78174540D02*
X143496540Y-78174540D01*
X145146540Y-88454540D02*
X145146540Y-78174540D01*
X139846540Y-88454540D02*
X145146540Y-88454540D01*
X139846540Y-78174540D02*
X139846540Y-88454540D01*
X141496540Y-78174540D02*
X139846540Y-78174540D01*
X143496540Y-78174540D02*
G75*
G02X141496540Y-78174540I-1000000J0D01*
G01*
X145362800Y-61992600D02*
X143712800Y-61992600D01*
X145362800Y-72272600D02*
X145362800Y-61992600D01*
X140062800Y-72272600D02*
X145362800Y-72272600D01*
X140062800Y-61992600D02*
X140062800Y-72272600D01*
X141712800Y-61992600D02*
X140062800Y-61992600D01*
X143712800Y-61992600D02*
G75*
G02X141712800Y-61992600I-1000000J0D01*
G01*
X145362800Y-51758540D02*
X143712800Y-51758540D01*
X145362800Y-62038540D02*
X145362800Y-51758540D01*
X140062800Y-62038540D02*
X145362800Y-62038540D01*
X140062800Y-51758540D02*
X140062800Y-62038540D01*
X141712800Y-51758540D02*
X140062800Y-51758540D01*
X143712800Y-51758540D02*
G75*
G02X141712800Y-51758540I-1000000J0D01*
G01*
X149548540Y-108012540D02*
X149548540Y-106682540D01*
X150878540Y-108012540D02*
X149548540Y-108012540D01*
X152148540Y-108012540D02*
X152148540Y-105352540D01*
X152148540Y-105352540D02*
X157288540Y-105352540D01*
X152148540Y-108012540D02*
X157288540Y-108012540D01*
X157288540Y-108012540D02*
X157288540Y-105352540D01*
X149548540Y-113092540D02*
X149548540Y-111762540D01*
X150878540Y-113092540D02*
X149548540Y-113092540D01*
X152148540Y-113092540D02*
X152148540Y-110432540D01*
X152148540Y-110432540D02*
X157288540Y-110432540D01*
X152148540Y-113092540D02*
X157288540Y-113092540D01*
X157288540Y-113092540D02*
X157288540Y-110432540D01*
X149548540Y-115632540D02*
X149548540Y-114302540D01*
X150878540Y-115632540D02*
X149548540Y-115632540D01*
X152148540Y-115632540D02*
X152148540Y-112972540D01*
X152148540Y-112972540D02*
X157288540Y-112972540D01*
X152148540Y-115632540D02*
X157288540Y-115632540D01*
X157288540Y-115632540D02*
X157288540Y-112972540D01*
X149548540Y-118172540D02*
X149548540Y-116842540D01*
X150878540Y-118172540D02*
X149548540Y-118172540D01*
X152148540Y-118172540D02*
X152148540Y-115512540D01*
X152148540Y-115512540D02*
X157288540Y-115512540D01*
X152148540Y-118172540D02*
X157288540Y-118172540D01*
X157288540Y-118172540D02*
X157288540Y-115512540D01*
X149548540Y-120712540D02*
X149548540Y-119382540D01*
X150878540Y-120712540D02*
X149548540Y-120712540D01*
X152148540Y-120712540D02*
X152148540Y-118052540D01*
X152148540Y-118052540D02*
X157288540Y-118052540D01*
X152148540Y-120712540D02*
X157288540Y-120712540D01*
X157288540Y-120712540D02*
X157288540Y-118052540D01*
X149548540Y-123252540D02*
X149548540Y-121922540D01*
X150878540Y-123252540D02*
X149548540Y-123252540D01*
X152148540Y-123252540D02*
X152148540Y-120592540D01*
X152148540Y-120592540D02*
X157288540Y-120592540D01*
X152148540Y-123252540D02*
X157288540Y-123252540D01*
X157288540Y-123252540D02*
X157288540Y-120592540D01*
X149548540Y-125792540D02*
X149548540Y-124462540D01*
X150878540Y-125792540D02*
X149548540Y-125792540D01*
X152148540Y-125792540D02*
X152148540Y-123132540D01*
X152148540Y-123132540D02*
X157288540Y-123132540D01*
X152148540Y-125792540D02*
X157288540Y-125792540D01*
X157288540Y-125792540D02*
X157288540Y-123132540D01*
X149548540Y-80834540D02*
X149548540Y-79504540D01*
X150878540Y-80834540D02*
X149548540Y-80834540D01*
X152148540Y-80834540D02*
X152148540Y-78174540D01*
X152148540Y-78174540D02*
X157288540Y-78174540D01*
X152148540Y-80834540D02*
X157288540Y-80834540D01*
X157288540Y-80834540D02*
X157288540Y-78174540D01*
X149548540Y-83374540D02*
X149548540Y-82044540D01*
X150878540Y-83374540D02*
X149548540Y-83374540D01*
X152148540Y-83374540D02*
X152148540Y-80714540D01*
X152148540Y-80714540D02*
X157288540Y-80714540D01*
X152148540Y-83374540D02*
X157288540Y-83374540D01*
X157288540Y-83374540D02*
X157288540Y-80714540D01*
X149548540Y-93534540D02*
X149548540Y-92204540D01*
X150878540Y-93534540D02*
X149548540Y-93534540D01*
X152148540Y-93534540D02*
X152148540Y-90874540D01*
X152148540Y-90874540D02*
X157288540Y-90874540D01*
X152148540Y-93534540D02*
X157288540Y-93534540D01*
X157288540Y-93534540D02*
X157288540Y-90874540D01*
X149548540Y-96074540D02*
X149548540Y-94744540D01*
X150878540Y-96074540D02*
X149548540Y-96074540D01*
X152148540Y-96074540D02*
X152148540Y-93414540D01*
X152148540Y-93414540D02*
X157288540Y-93414540D01*
X152148540Y-96074540D02*
X157288540Y-96074540D01*
X157288540Y-96074540D02*
X157288540Y-93414540D01*
X149548540Y-98614540D02*
X149548540Y-97284540D01*
X150878540Y-98614540D02*
X149548540Y-98614540D01*
X152148540Y-98614540D02*
X152148540Y-95954540D01*
X152148540Y-95954540D02*
X157288540Y-95954540D01*
X152148540Y-98614540D02*
X157288540Y-98614540D01*
X157288540Y-98614540D02*
X157288540Y-95954540D01*
X149510800Y-54492600D02*
X149510800Y-53162600D01*
X150840800Y-54492600D02*
X149510800Y-54492600D01*
X152110800Y-54492600D02*
X152110800Y-51832600D01*
X152110800Y-51832600D02*
X157250800Y-51832600D01*
X152110800Y-54492600D02*
X157250800Y-54492600D01*
X157250800Y-54492600D02*
X157250800Y-51832600D01*
X149510800Y-57032600D02*
X149510800Y-55702600D01*
X150840800Y-57032600D02*
X149510800Y-57032600D01*
X152110800Y-57032600D02*
X152110800Y-54372600D01*
X152110800Y-54372600D02*
X157250800Y-54372600D01*
X152110800Y-57032600D02*
X157250800Y-57032600D01*
X157250800Y-57032600D02*
X157250800Y-54372600D01*
X149510800Y-59572600D02*
X149510800Y-58242600D01*
X150840800Y-59572600D02*
X149510800Y-59572600D01*
X152110800Y-59572600D02*
X152110800Y-56912600D01*
X152110800Y-56912600D02*
X157250800Y-56912600D01*
X152110800Y-59572600D02*
X157250800Y-59572600D01*
X157250800Y-59572600D02*
X157250800Y-56912600D01*
X149510800Y-62112600D02*
X149510800Y-60782600D01*
X150840800Y-62112600D02*
X149510800Y-62112600D01*
X152110800Y-62112600D02*
X152110800Y-59452600D01*
X152110800Y-59452600D02*
X157250800Y-59452600D01*
X152110800Y-62112600D02*
X157250800Y-62112600D01*
X157250800Y-62112600D02*
X157250800Y-59452600D01*
X149510800Y-64652600D02*
X149510800Y-63322600D01*
X150840800Y-64652600D02*
X149510800Y-64652600D01*
X152110800Y-64652600D02*
X152110800Y-61992600D01*
X152110800Y-61992600D02*
X157250800Y-61992600D01*
X152110800Y-64652600D02*
X157250800Y-64652600D01*
X157250800Y-64652600D02*
X157250800Y-61992600D01*
X149510800Y-67192600D02*
X149510800Y-65862600D01*
X150840800Y-67192600D02*
X149510800Y-67192600D01*
X152110800Y-67192600D02*
X152110800Y-64532600D01*
X152110800Y-64532600D02*
X157250800Y-64532600D01*
X152110800Y-67192600D02*
X157250800Y-67192600D01*
X157250800Y-67192600D02*
X157250800Y-64532600D01*
X149510800Y-69732600D02*
X149510800Y-68402600D01*
X150840800Y-69732600D02*
X149510800Y-69732600D01*
X152110800Y-69732600D02*
X152110800Y-67072600D01*
X152110800Y-67072600D02*
X157250800Y-67072600D01*
X152110800Y-69732600D02*
X157250800Y-69732600D01*
X157250800Y-69732600D02*
X157250800Y-67072600D01*
X149510800Y-72272600D02*
X149510800Y-70942600D01*
X150840800Y-72272600D02*
X149510800Y-72272600D01*
X152110800Y-72272600D02*
X152110800Y-69612600D01*
X152110800Y-69612600D02*
X157250800Y-69612600D01*
X152110800Y-72272600D02*
X157250800Y-72272600D01*
X157250800Y-72272600D02*
X157250800Y-69612600D01*
X149548540Y-102932540D02*
X149548540Y-101602540D01*
X150878540Y-102932540D02*
X149548540Y-102932540D01*
X152148540Y-102932540D02*
X152148540Y-100272540D01*
X152148540Y-100272540D02*
X157288540Y-100272540D01*
X152148540Y-102932540D02*
X157288540Y-102932540D01*
X157288540Y-102932540D02*
X157288540Y-100272540D01*
D11*
X149023780Y-130017685D02*
X148023780Y-130017685D01*
X148023780Y-129636733D01*
X148071400Y-129541495D01*
X148119019Y-129493876D01*
X148214257Y-129446257D01*
X148357114Y-129446257D01*
X148452352Y-129493876D01*
X148499971Y-129541495D01*
X148547590Y-129636733D01*
X148547590Y-130017685D01*
X148976161Y-129065304D02*
X149023780Y-128922447D01*
X149023780Y-128684352D01*
X148976161Y-128589114D01*
X148928542Y-128541495D01*
X148833304Y-128493876D01*
X148738066Y-128493876D01*
X148642828Y-128541495D01*
X148595209Y-128589114D01*
X148547590Y-128684352D01*
X148499971Y-128874828D01*
X148452352Y-128970066D01*
X148404733Y-129017685D01*
X148309495Y-129065304D01*
X148214257Y-129065304D01*
X148119019Y-129017685D01*
X148071400Y-128970066D01*
X148023780Y-128874828D01*
X148023780Y-128636733D01*
X148071400Y-128493876D01*
X148023780Y-128160542D02*
X148023780Y-127541495D01*
X148404733Y-127874828D01*
X148404733Y-127731971D01*
X148452352Y-127636733D01*
X148499971Y-127589114D01*
X148595209Y-127541495D01*
X148833304Y-127541495D01*
X148928542Y-127589114D01*
X148976161Y-127636733D01*
X149023780Y-127731971D01*
X149023780Y-128017685D01*
X148976161Y-128112923D01*
X148928542Y-128160542D01*
X142352733Y-100299780D02*
X142019400Y-99823590D01*
X141781304Y-100299780D02*
X141781304Y-99299780D01*
X142162257Y-99299780D01*
X142257495Y-99347400D01*
X142305114Y-99395019D01*
X142352733Y-99490257D01*
X142352733Y-99633114D01*
X142305114Y-99728352D01*
X142257495Y-99775971D01*
X142162257Y-99823590D01*
X141781304Y-99823590D01*
X142686066Y-99299780D02*
X143305114Y-99299780D01*
X142971780Y-99680733D01*
X143114638Y-99680733D01*
X143209876Y-99728352D01*
X143257495Y-99775971D01*
X143305114Y-99871209D01*
X143305114Y-100109304D01*
X143257495Y-100204542D01*
X143209876Y-100252161D01*
X143114638Y-100299780D01*
X142828923Y-100299780D01*
X142733685Y-100252161D01*
X142686066Y-100204542D01*
X148963180Y-76400825D02*
X147963180Y-76400825D01*
X147963180Y-76019873D01*
X148010800Y-75924635D01*
X148058419Y-75877016D01*
X148153657Y-75829397D01*
X148296514Y-75829397D01*
X148391752Y-75877016D01*
X148439371Y-75924635D01*
X148486990Y-76019873D01*
X148486990Y-76400825D01*
X148915561Y-75448444D02*
X148963180Y-75305587D01*
X148963180Y-75067492D01*
X148915561Y-74972254D01*
X148867942Y-74924635D01*
X148772704Y-74877016D01*
X148677466Y-74877016D01*
X148582228Y-74924635D01*
X148534609Y-74972254D01*
X148486990Y-75067492D01*
X148439371Y-75257968D01*
X148391752Y-75353206D01*
X148344133Y-75400825D01*
X148248895Y-75448444D01*
X148153657Y-75448444D01*
X148058419Y-75400825D01*
X148010800Y-75353206D01*
X147963180Y-75257968D01*
X147963180Y-75019873D01*
X148010800Y-74877016D01*
X148963180Y-73924635D02*
X148963180Y-74496063D01*
X148963180Y-74210349D02*
X147963180Y-74210349D01*
X148106038Y-74305587D01*
X148201276Y-74400825D01*
X148248895Y-74496063D01*
X102284257Y-55548638D02*
X102236638Y-55501019D01*
X102189019Y-55358161D01*
X102189019Y-55262923D01*
X102236638Y-55120066D01*
X102331876Y-55024828D01*
X102427114Y-54977209D01*
X102617590Y-54929590D01*
X102760447Y-54929590D01*
X102950923Y-54977209D01*
X103046161Y-55024828D01*
X103141400Y-55120066D01*
X103189019Y-55262923D01*
X103189019Y-55358161D01*
X103141400Y-55501019D01*
X103093780Y-55548638D01*
X102189019Y-56120066D02*
X102236638Y-56024828D01*
X102284257Y-55977209D01*
X102379495Y-55929590D01*
X102665209Y-55929590D01*
X102760447Y-55977209D01*
X102808066Y-56024828D01*
X102855685Y-56120066D01*
X102855685Y-56262923D01*
X102808066Y-56358161D01*
X102760447Y-56405780D01*
X102665209Y-56453400D01*
X102379495Y-56453400D01*
X102284257Y-56405780D01*
X102236638Y-56358161D01*
X102189019Y-56262923D01*
X102189019Y-56120066D01*
X102189019Y-56881971D02*
X102855685Y-56881971D01*
X102760447Y-56881971D02*
X102808066Y-56929590D01*
X102855685Y-57024828D01*
X102855685Y-57167685D01*
X102808066Y-57262923D01*
X102712828Y-57310542D01*
X102189019Y-57310542D01*
X102712828Y-57310542D02*
X102808066Y-57358161D01*
X102855685Y-57453400D01*
X102855685Y-57596257D01*
X102808066Y-57691495D01*
X102712828Y-57739114D01*
X102189019Y-57739114D01*
X102189019Y-58215304D02*
X102855685Y-58215304D01*
X102760447Y-58215304D02*
X102808066Y-58262923D01*
X102855685Y-58358161D01*
X102855685Y-58501019D01*
X102808066Y-58596257D01*
X102712828Y-58643876D01*
X102189019Y-58643876D01*
X102712828Y-58643876D02*
X102808066Y-58691495D01*
X102855685Y-58786733D01*
X102855685Y-58929590D01*
X102808066Y-59024828D01*
X102712828Y-59072447D01*
X102189019Y-59072447D01*
X102189019Y-60310542D02*
X103189019Y-60310542D01*
X103189019Y-60691495D01*
X103141400Y-60786733D01*
X103093780Y-60834352D01*
X102998542Y-60881971D01*
X102855685Y-60881971D01*
X102760447Y-60834352D01*
X102712828Y-60786733D01*
X102665209Y-60691495D01*
X102665209Y-60310542D01*
X102189019Y-61453400D02*
X102236638Y-61358161D01*
X102284257Y-61310542D01*
X102379495Y-61262923D01*
X102665209Y-61262923D01*
X102760447Y-61310542D01*
X102808066Y-61358161D01*
X102855685Y-61453400D01*
X102855685Y-61596257D01*
X102808066Y-61691495D01*
X102760447Y-61739114D01*
X102665209Y-61786733D01*
X102379495Y-61786733D01*
X102284257Y-61739114D01*
X102236638Y-61691495D01*
X102189019Y-61596257D01*
X102189019Y-61453400D01*
X102189019Y-62215304D02*
X102855685Y-62215304D01*
X102665209Y-62215304D02*
X102760447Y-62262923D01*
X102808066Y-62310542D01*
X102855685Y-62405780D01*
X102855685Y-62501019D01*
X102855685Y-62691495D02*
X102855685Y-63072447D01*
X103189019Y-62834352D02*
X102331876Y-62834352D01*
X102236638Y-62881971D01*
X102189019Y-62977209D01*
X102189019Y-63072447D01*
X142329873Y-104804920D02*
X141996540Y-104328730D01*
X141758444Y-104804920D02*
X141758444Y-103804920D01*
X142139397Y-103804920D01*
X142234635Y-103852540D01*
X142282254Y-103900159D01*
X142329873Y-103995397D01*
X142329873Y-104138254D01*
X142282254Y-104233492D01*
X142234635Y-104281111D01*
X142139397Y-104328730D01*
X141758444Y-104328730D01*
X143187016Y-103804920D02*
X142996540Y-103804920D01*
X142901301Y-103852540D01*
X142853682Y-103900159D01*
X142758444Y-104043016D01*
X142710825Y-104233492D01*
X142710825Y-104614444D01*
X142758444Y-104709682D01*
X142806063Y-104757301D01*
X142901301Y-104804920D01*
X143091778Y-104804920D01*
X143187016Y-104757301D01*
X143234635Y-104709682D01*
X143282254Y-104614444D01*
X143282254Y-104376349D01*
X143234635Y-104281111D01*
X143187016Y-104233492D01*
X143091778Y-104185873D01*
X142901301Y-104185873D01*
X142806063Y-104233492D01*
X142758444Y-104281111D01*
X142710825Y-104376349D01*
X142606733Y-127223780D02*
X142273400Y-126747590D01*
X142035304Y-127223780D02*
X142035304Y-126223780D01*
X142416257Y-126223780D01*
X142511495Y-126271400D01*
X142559114Y-126319019D01*
X142606733Y-126414257D01*
X142606733Y-126557114D01*
X142559114Y-126652352D01*
X142511495Y-126699971D01*
X142416257Y-126747590D01*
X142035304Y-126747590D01*
X143511495Y-126223780D02*
X143035304Y-126223780D01*
X142987685Y-126699971D01*
X143035304Y-126652352D01*
X143130542Y-126604733D01*
X143368638Y-126604733D01*
X143463876Y-126652352D01*
X143511495Y-126699971D01*
X143559114Y-126795209D01*
X143559114Y-127033304D01*
X143511495Y-127128542D01*
X143463876Y-127176161D01*
X143368638Y-127223780D01*
X143130542Y-127223780D01*
X143035304Y-127176161D01*
X142987685Y-127128542D01*
X142329873Y-77626920D02*
X141996540Y-77150730D01*
X141758444Y-77626920D02*
X141758444Y-76626920D01*
X142139397Y-76626920D01*
X142234635Y-76674540D01*
X142282254Y-76722159D01*
X142329873Y-76817397D01*
X142329873Y-76960254D01*
X142282254Y-77055492D01*
X142234635Y-77103111D01*
X142139397Y-77150730D01*
X141758444Y-77150730D01*
X143187016Y-76960254D02*
X143187016Y-77626920D01*
X142948920Y-76579301D02*
X142710825Y-77293587D01*
X143329873Y-77293587D01*
X142606733Y-73629780D02*
X142273400Y-73153590D01*
X142035304Y-73629780D02*
X142035304Y-72629780D01*
X142416257Y-72629780D01*
X142511495Y-72677400D01*
X142559114Y-72725019D01*
X142606733Y-72820257D01*
X142606733Y-72963114D01*
X142559114Y-73058352D01*
X142511495Y-73105971D01*
X142416257Y-73153590D01*
X142035304Y-73153590D01*
X142987685Y-72725019D02*
X143035304Y-72677400D01*
X143130542Y-72629780D01*
X143368638Y-72629780D01*
X143463876Y-72677400D01*
X143511495Y-72725019D01*
X143559114Y-72820257D01*
X143559114Y-72915495D01*
X143511495Y-73058352D01*
X142940066Y-73629780D01*
X143559114Y-73629780D01*
X142546133Y-52210920D02*
X142212800Y-51734730D01*
X141974704Y-52210920D02*
X141974704Y-51210920D01*
X142355657Y-51210920D01*
X142450895Y-51258540D01*
X142498514Y-51306159D01*
X142546133Y-51401397D01*
X142546133Y-51544254D01*
X142498514Y-51639492D01*
X142450895Y-51687111D01*
X142355657Y-51734730D01*
X141974704Y-51734730D01*
X143498514Y-52210920D02*
X142927085Y-52210920D01*
X143212800Y-52210920D02*
X143212800Y-51210920D01*
X143117561Y-51353778D01*
X143022323Y-51449016D01*
X142927085Y-51496635D01*
X149000920Y-102816825D02*
X148000920Y-102816825D01*
X148000920Y-102435873D01*
X148048540Y-102340635D01*
X148096159Y-102293016D01*
X148191397Y-102245397D01*
X148334254Y-102245397D01*
X148429492Y-102293016D01*
X148477111Y-102340635D01*
X148524730Y-102435873D01*
X148524730Y-102816825D01*
X148953301Y-101864444D02*
X149000920Y-101721587D01*
X149000920Y-101483492D01*
X148953301Y-101388254D01*
X148905682Y-101340635D01*
X148810444Y-101293016D01*
X148715206Y-101293016D01*
X148619968Y-101340635D01*
X148572349Y-101388254D01*
X148524730Y-101483492D01*
X148477111Y-101673968D01*
X148429492Y-101769206D01*
X148381873Y-101816825D01*
X148286635Y-101864444D01*
X148191397Y-101864444D01*
X148096159Y-101816825D01*
X148048540Y-101769206D01*
X148000920Y-101673968D01*
X148000920Y-101435873D01*
X148048540Y-101293016D01*
X148096159Y-100912063D02*
X148048540Y-100864444D01*
X148000920Y-100769206D01*
X148000920Y-100531111D01*
X148048540Y-100435873D01*
X148096159Y-100388254D01*
X148191397Y-100340635D01*
X148286635Y-100340635D01*
X148429492Y-100388254D01*
X149000920Y-100959682D01*
X149000920Y-100340635D01*
M02*
