M48
; DRILL file {KiCad 5.1.5+dfsg1-2build2} date Tue 25 Mar 2025 08:21:24 PM CDT
; FORMAT={-:-/ absolute / inch / decimal}
; #@! TF.CreationDate,2025-03-25T20:21:24-05:00
; #@! TF.GenerationSoftware,Kicad,Pcbnew,5.1.5+dfsg1-2build2
; #@! TF.FileFunction,Plated,1,2,PTH
FMAT,2
INCH
T1C0.0157
T2C0.0315
T3C0.0394
%
G90
G05
T1
X6.101Y-4.981
T2
X5.4601Y-4.6001
X5.4601Y-4.7001
X5.4601Y-4.8001
X5.4601Y-4.9001
X5.7601Y-4.6001
X5.7601Y-4.7001
X5.7601Y-4.8001
X5.7601Y-4.9001
X5.4601Y-3.1301
X5.4601Y-3.2301
X5.4601Y-3.3301
X5.4601Y-3.4301
X5.7601Y-3.1301
X5.7601Y-3.2301
X5.7601Y-3.3301
X5.7601Y-3.4301
X5.4686Y-2.493
X5.4686Y-2.593
X5.4686Y-2.693
X5.4686Y-2.793
X5.7686Y-2.493
X5.7686Y-2.593
X5.7686Y-2.693
X5.7686Y-2.793
X5.4601Y-4.2001
X5.4601Y-4.3001
X5.4601Y-4.4001
X5.4601Y-4.5001
X5.7601Y-4.2001
X5.7601Y-4.3001
X5.7601Y-4.4001
X5.7601Y-4.5001
X5.4686Y-2.0901
X5.4686Y-2.1901
X5.4686Y-2.2901
X5.4686Y-2.3901
X5.7686Y-2.0901
X5.7686Y-2.1901
X5.7686Y-2.2901
X5.7686Y-2.3901
X5.4601Y-3.5301
X5.4601Y-3.6301
X5.4601Y-3.7301
X5.4601Y-3.8301
X5.7601Y-3.5301
X5.7601Y-3.6301
X5.7601Y-3.7301
X5.7601Y-3.8301
T3
X5.9401Y-3.8301
X6.0401Y-3.8301
X6.1401Y-3.8301
X5.9401Y-4.8001
X6.0401Y-4.8001
X6.1401Y-4.8001
X5.9401Y-4.5001
X6.0401Y-4.5001
X6.1401Y-4.5001
X5.1191Y-4.2751
X5.1191Y-4.3751
X5.1191Y-4.4751
X5.1191Y-4.5751
X5.1191Y-4.6751
X5.1191Y-4.7751
X5.2191Y-4.2751
X5.2191Y-4.3751
X5.2191Y-4.4751
X5.2191Y-4.5751
X5.2191Y-4.6751
X5.2191Y-4.7751
X5.9401Y-4.4001
X6.0401Y-4.4001
X6.1401Y-4.4001
X5.9386Y-2.693
X6.0386Y-2.693
X6.1386Y-2.693
X5.1191Y-3.1751
X5.1191Y-3.2751
X5.1191Y-3.3751
X5.1191Y-3.4751
X5.1191Y-3.5751
X5.1191Y-3.6751
X5.2191Y-3.1751
X5.2191Y-3.2751
X5.2191Y-3.3751
X5.2191Y-3.4751
X5.2191Y-3.5751
X5.2191Y-3.6751
X5.9401Y-3.7301
X6.0401Y-3.7301
X6.1401Y-3.7301
X5.9386Y-2.393
X6.0386Y-2.393
X6.1386Y-2.393
X5.9386Y-2.293
X6.0386Y-2.293
X6.1386Y-2.293
X5.9401Y-4.0001
X6.0401Y-4.0001
X6.1401Y-4.0001
X5.9386Y-2.593
X6.0386Y-2.593
X6.1386Y-2.593
X4.219Y-2.075
X4.219Y-2.175
X4.219Y-2.275
X4.219Y-2.375
X4.219Y-2.475
X4.219Y-2.575
X4.319Y-2.075
X4.319Y-2.175
X4.319Y-2.275
X4.319Y-2.375
X4.319Y-2.475
X4.319Y-2.575
X5.9386Y-2.793
X6.0386Y-2.793
X6.1386Y-2.793
X3.951Y-2.171
X3.951Y-2.271
X3.951Y-2.371
X3.951Y-2.471
X5.9386Y-2.193
X6.0386Y-2.193
X6.1386Y-2.193
X5.9386Y-2.493
X6.0386Y-2.493
X6.1386Y-2.493
X5.9401Y-3.3301
X6.0401Y-3.3301
X6.1401Y-3.3301
X5.9401Y-3.2301
X6.0401Y-3.2301
X6.1401Y-3.2301
X5.9401Y-4.2001
X6.0401Y-4.2001
X6.1401Y-4.2001
X5.9386Y-2.9601
X6.0386Y-2.9601
X6.1386Y-2.9601
X5.1191Y-2.0751
X5.1191Y-2.1751
X5.1191Y-2.2751
X5.1191Y-2.3751
X5.1191Y-2.4751
X5.1191Y-2.5751
X5.2191Y-2.0751
X5.2191Y-2.1751
X5.2191Y-2.2751
X5.2191Y-2.3751
X5.2191Y-2.4751
X5.2191Y-2.5751
X5.9401Y-4.9001
X6.0401Y-4.9001
X6.1401Y-4.9001
X5.9401Y-4.6001
X6.0401Y-4.6001
X6.1401Y-4.6001
X5.9401Y-4.3001
X6.0401Y-4.3001
X6.1401Y-4.3001
X5.9401Y-3.5301
X6.0401Y-3.5301
X6.1401Y-3.5301
X5.941Y-5.071
X6.041Y-5.071
X6.141Y-5.071
X5.9401Y-4.7001
X6.0401Y-4.7001
X6.1401Y-4.7001
X5.9401Y-3.4301
X6.0401Y-3.4301
X6.1401Y-3.4301
X5.9401Y-3.6301
X6.0401Y-3.6301
X6.1401Y-3.6301
X5.9401Y-3.1301
X6.0401Y-3.1301
X6.1401Y-3.1301
X5.9386Y-2.093
X6.0386Y-2.093
X6.1386Y-2.093
T0
M30
